<?xml version="1.0"?>
<!-- Generated by SVGo and Plotinum VG -->
<svg width="470pt" height="235pt" viewBox="0 0 470 235"
	xmlns="http://www.w3.org/2000/svg"
	xmlns:xlink="http://www.w3.org/1999/xlink">
<g transform="scale(1, -1) translate(0, -235)">
<path d="M0,0L470,0L470,235L0,235Z" style="fill:#FFFFFF" />
<text x="183.67" y="-223.45" transform="scale(1, -1)"
	style="font-family:Times;font-weight:normal;font-style:normal;font-size:12px">Enforce ABAC Alloc</text>
<text x="278.95" y="-3.8613" transform="scale(1, -1)"
	style="font-family:Times;font-weight:normal;font-style:normal;font-size:12px">size</text>
<text x="101.67" y="-15.602" transform="scale(1, -1)"
	style="font-family:Times;font-weight:normal;font-style:normal;font-size:10px">Large(1000)</text>
<text x="260.51" y="-15.602" transform="scale(1, -1)"
	style="font-family:Times;font-weight:normal;font-style:normal;font-size:10px">Medium(100)</text>
<text x="430" y="-15.602" transform="scale(1, -1)"
	style="font-family:Times;font-weight:normal;font-style:normal;font-size:10px">Small(10)</text>
<g transform="rotate(90)">
<text x="100.86" y="11.555" transform="scale(1, -1)"
	style="font-family:Times;font-weight:normal;font-style:normal;font-size:12px">allocs/op</text>
</g>
<text x="40.416" y="-25.509" transform="scale(1, -1)"
	style="font-family:Times;font-weight:normal;font-style:normal;font-size:10px">0</text>
<text x="20.416" y="-117.73" transform="scale(1, -1)"
	style="font-family:Times;font-weight:normal;font-style:normal;font-size:10px">50000</text>
<text x="15.416" y="-209.96" transform="scale(1, -1)"
	style="font-family:Times;font-weight:normal;font-style:normal;font-size:10px">100000</text>
<path d="M47.916,30.23L55.916,30.23" style="fill:none;stroke:#000000;stroke-width:0.5" />
<path d="M47.916,122.45L55.916,122.45" style="fill:none;stroke:#000000;stroke-width:0.5" />
<path d="M47.916,214.68L55.916,214.68" style="fill:none;stroke:#000000;stroke-width:0.5" />
<path d="M51.916,48.675L55.916,48.675" style="fill:none;stroke:#000000;stroke-width:0.5" />
<path d="M51.916,67.12L55.916,67.12" style="fill:none;stroke:#000000;stroke-width:0.5" />
<path d="M51.916,85.564L55.916,85.564" style="fill:none;stroke:#000000;stroke-width:0.5" />
<path d="M51.916,104.01L55.916,104.01" style="fill:none;stroke:#000000;stroke-width:0.5" />
<path d="M51.916,140.9L55.916,140.9" style="fill:none;stroke:#000000;stroke-width:0.5" />
<path d="M51.916,159.34L55.916,159.34" style="fill:none;stroke:#000000;stroke-width:0.5" />
<path d="M51.916,177.79L55.916,177.79" style="fill:none;stroke:#000000;stroke-width:0.5" />
<path d="M51.916,196.23L55.916,196.23" style="fill:none;stroke:#000000;stroke-width:0.5" />
<path d="M55.916,30.23L55.916,214.81" style="fill:none;stroke:#000000;stroke-width:0.5" />
<path d="M81.563,30.23L81.563,214.81L111.56,214.81L111.56,30.23Z" style="fill:#F15A60" />
<path d="M243.28,30.23L243.28,48.705L273.28,48.705L273.28,30.23Z" style="fill:#F15A60" />
<path d="M405,30.23L405,32.092L435,32.092L435,30.23Z" style="fill:#F15A60" />
<path d="M111.56,30.23L111.56,38.89L141.56,38.89L141.56,30.23Z" style="fill:#7AC36A" />
<path d="M273.28,30.23L273.28,38.359L303.28,38.359L303.28,30.23Z" style="fill:#7AC36A" />
<path d="M435,30.23L435,31.575L465,31.575L465,30.23Z" style="fill:#7AC36A" />
<path d="M450,207.81L450,219.58L470,219.58L470,207.81Z" style="fill:#F15A60" />
<text x="413.67" y="-208.03" transform="scale(1, -1)"
	style="font-family:Times;font-weight:normal;font-style:normal;font-size:12px">Casbin</text>
<path d="M450,196.03L450,207.81L470,207.81L470,196.03Z" style="fill:#7AC36A" />
<text x="410.33" y="-196.25" transform="scale(1, -1)"
	style="font-family:Times;font-weight:normal;font-style:normal;font-size:12px">FastAC</text>
</g>
</svg>
