<?xml version="1.0"?>
<!-- Generated by SVGo and Plotinum VG -->
<svg width="560pt" height="280pt" viewBox="0 0 560 280"
	xmlns="http://www.w3.org/2000/svg"
	xmlns:xlink="http://www.w3.org/1999/xlink">
<g transform="scale(1, -1) translate(0, -280)">
<path d="M0,0L560,0L560,280L0,280Z" style="fill:#FFFFFF" />
<text x="233.68" y="-268.45" transform="scale(1, -1)"
	style="font-family:Times;font-weight:normal;font-style:normal;font-size:12px">ABAC-Benchmark</text>
<text x="312.74" y="-3.8613" transform="scale(1, -1)"
	style="font-family:Times;font-weight:normal;font-style:normal;font-size:12px">size</text>
<text x="104.24" y="-15.602" transform="scale(1, -1)"
	style="font-family:Times;font-weight:normal;font-style:normal;font-size:10px">Large(1000)</text>
<text x="294.3" y="-15.602" transform="scale(1, -1)"
	style="font-family:Times;font-weight:normal;font-style:normal;font-size:10px">Medium(100)</text>
<text x="495" y="-15.602" transform="scale(1, -1)"
	style="font-family:Times;font-weight:normal;font-style:normal;font-size:10px">Small(10)</text>
<g transform="rotate(90)">
<text x="134.41" y="11.555" transform="scale(1, -1)"
	style="font-family:Times;font-weight:normal;font-style:normal;font-size:12px">ns/op</text>
</g>
<text x="42.994" y="-25.509" transform="scale(1, -1)"
	style="font-family:Times;font-weight:normal;font-style:normal;font-size:10px">0</text>
<text x="15.416" y="-232.31" transform="scale(1, -1)"
	style="font-family:Times;font-weight:normal;font-style:normal;font-size:10px">2.5e+07</text>
<path d="M50.494,30.23L58.494,30.23" style="fill:none;stroke:#000000;stroke-width:0.5" />
<path d="M50.494,237.03L58.494,237.03" style="fill:none;stroke:#000000;stroke-width:0.5" />
<path d="M54.494,71.591L58.494,71.591" style="fill:none;stroke:#000000;stroke-width:0.5" />
<path d="M54.494,112.95L58.494,112.95" style="fill:none;stroke:#000000;stroke-width:0.5" />
<path d="M54.494,154.31L58.494,154.31" style="fill:none;stroke:#000000;stroke-width:0.5" />
<path d="M54.494,195.67L58.494,195.67" style="fill:none;stroke:#000000;stroke-width:0.5" />
<path d="M58.494,30.23L58.494,264.58" style="fill:none;stroke:#000000;stroke-width:0.5" />
<path d="M84.142,30.23L84.142,264.58L114.14,264.58L114.14,30.23Z" style="fill:#F15A60" />
<path d="M277.07,30.23L277.07,54.474L307.07,54.474L307.07,30.23Z" style="fill:#F15A60" />
<path d="M470,30.23L470,32.765L500,32.765L500,30.23Z" style="fill:#F15A60" />
<path d="M114.14,30.23L114.14,85.974L144.14,85.974L144.14,30.23Z" style="fill:#7AC36A" />
<path d="M307.07,30.23L307.07,35.971L337.07,35.971L337.07,30.23Z" style="fill:#7AC36A" />
<path d="M500,30.23L500,30.911L530,30.911L530,30.23Z" style="fill:#7AC36A" />
<path d="M144.14,30.23L144.14,35.87L174.14,35.87L174.14,30.23Z" style="fill:#5A9BD4" />
<path d="M337.07,30.23L337.07,35.69L367.07,35.69L367.07,30.23Z" style="fill:#5A9BD4" />
<path d="M530,30.23L530,30.929L560,30.929L560,30.23Z" style="fill:#5A9BD4" />
<path d="M540,252.81L540,264.58L560,264.58L560,252.81Z" style="fill:#F15A60" />
<text x="503.67" y="-253.03" transform="scale(1, -1)"
	style="font-family:Times;font-weight:normal;font-style:normal;font-size:12px">Casbin</text>
<path d="M540,241.03L540,252.81L560,252.81L560,241.03Z" style="fill:#7AC36A" />
<text x="500.33" y="-241.25" transform="scale(1, -1)"
	style="font-family:Times;font-weight:normal;font-style:normal;font-size:12px">FastAC</text>
<path d="M540,229.25L540,241.03L560,241.03L560,229.25Z" style="fill:#5A9BD4" />
<text x="469.67" y="-229.47" transform="scale(1, -1)"
	style="font-family:Times;font-weight:normal;font-style:normal;font-size:12px">FastAC-index</text>
</g>
</svg>
