<?xml version="1.0"?>
<!-- Generated by SVGo and Plotinum VG -->
<svg width="560pt" height="280pt" viewBox="0 0 560 280"
	xmlns="http://www.w3.org/2000/svg"
	xmlns:xlink="http://www.w3.org/1999/xlink">
<g transform="scale(1, -1) translate(0, -280)">
<path d="M0,0L560,0L560,280L0,280Z" style="fill:#FFFFFF" />
<text x="235.67" y="-268.45" transform="scale(1, -1)"
	style="font-family:Times;font-weight:normal;font-style:normal;font-size:12px">BenchmarkABAC</text>
<text x="306.08" y="-3.8613" transform="scale(1, -1)"
	style="font-family:Times;font-weight:normal;font-style:normal;font-size:12px">size</text>
<text x="104.24" y="-15.602" transform="scale(1, -1)"
	style="font-family:Times;font-weight:normal;font-style:normal;font-size:10px">Large</text>
<text x="298.46" y="-15.602" transform="scale(1, -1)"
	style="font-family:Times;font-weight:normal;font-style:normal;font-size:10px">Medium</text>
<text x="503.33" y="-15.602" transform="scale(1, -1)"
	style="font-family:Times;font-weight:normal;font-style:normal;font-size:10px">Small</text>
<g transform="rotate(90)">
<text x="134.41" y="11.555" transform="scale(1, -1)"
	style="font-family:Times;font-weight:normal;font-style:normal;font-size:12px">ns/op</text>
</g>
<text x="42.994" y="-25.509" transform="scale(1, -1)"
	style="font-family:Times;font-weight:normal;font-style:normal;font-size:10px">0</text>
<text x="15.416" y="-231.09" transform="scale(1, -1)"
	style="font-family:Times;font-weight:normal;font-style:normal;font-size:10px">2.5e+07</text>
<path d="M50.494,30.23L58.494,30.23" style="fill:none;stroke:#000000;stroke-width:0.5" />
<path d="M50.494,235.81L58.494,235.81" style="fill:none;stroke:#000000;stroke-width:0.5" />
<path d="M54.494,71.346L58.494,71.346" style="fill:none;stroke:#000000;stroke-width:0.5" />
<path d="M54.494,112.46L58.494,112.46" style="fill:none;stroke:#000000;stroke-width:0.5" />
<path d="M54.494,153.58L58.494,153.58" style="fill:none;stroke:#000000;stroke-width:0.5" />
<path d="M54.494,194.69L58.494,194.69" style="fill:none;stroke:#000000;stroke-width:0.5" />
<path d="M58.494,30.23L58.494,264.58" style="fill:none;stroke:#000000;stroke-width:0.5" />
<path d="M70.812,30.23L70.812,264.58L100.81,264.58L100.81,30.23Z" style="fill:#F15A60" />
<path d="M270.41,30.23L270.41,54.855L300.41,54.855L300.41,30.23Z" style="fill:#F15A60" />
<path d="M470,30.23L470,32.585L500,32.585L500,30.23Z" style="fill:#F15A60" />
<path d="M100.81,30.23L100.81,85.572L130.81,85.572L130.81,30.23Z" style="fill:#7AC36A" />
<path d="M300.41,30.23L300.41,35.464L330.41,35.464L330.41,30.23Z" style="fill:#7AC36A" />
<path d="M500,30.23L500,30.876L530,30.876L530,30.23Z" style="fill:#7AC36A" />
<path d="M130.81,30.23L130.81,36.362L160.81,36.362L160.81,30.23Z" style="fill:#5A9BD4" />
<path d="M330.41,30.23L330.41,35.474L360.41,35.474L360.41,30.23Z" style="fill:#5A9BD4" />
<path d="M530,30.23L530,30.924L560,30.924L560,30.23Z" style="fill:#5A9BD4" />
<path d="M540,252.81L540,264.58L560,264.58L560,252.81Z" style="fill:#F15A60" />
<text x="506.34" y="-253.03" transform="scale(1, -1)"
	style="font-family:Times;font-weight:normal;font-style:normal;font-size:12px">casbin</text>
<path d="M540,241.03L540,252.81L560,252.81L560,241.03Z" style="fill:#7AC36A" />
<text x="509.02" y="-241.25" transform="scale(1, -1)"
	style="font-family:Times;font-weight:normal;font-style:normal;font-size:12px">fastac</text>
<path d="M540,229.25L540,241.03L560,241.03L560,229.25Z" style="fill:#5A9BD4" />
<text x="478.37" y="-229.47" transform="scale(1, -1)"
	style="font-family:Times;font-weight:normal;font-style:normal;font-size:12px">fastac-index</text>
</g>
</svg>
