<?xml version="1.0"?>
<!-- Generated by SVGo and Plotinum VG -->
<svg width="470pt" height="235pt" viewBox="0 0 470 235"
	xmlns="http://www.w3.org/2000/svg"
	xmlns:xlink="http://www.w3.org/1999/xlink">
<g transform="scale(1, -1) translate(0, -235)">
<path d="M0,0L470,0L470,235L0,235Z" style="fill:#FFFFFF" />
<text x="198.17" y="-223.45" transform="scale(1, -1)"
	style="font-family:Times;font-weight:normal;font-style:normal;font-size:12px">Enforce ABAC</text>
<text x="276.49" y="-3.8613" transform="scale(1, -1)"
	style="font-family:Times;font-weight:normal;font-style:normal;font-size:12px">size</text>
<text x="96.744" y="-15.602" transform="scale(1, -1)"
	style="font-family:Times;font-weight:normal;font-style:normal;font-size:10px">Large(1000)</text>
<text x="258.05" y="-15.602" transform="scale(1, -1)"
	style="font-family:Times;font-weight:normal;font-style:normal;font-size:10px">Medium(100)</text>
<text x="430" y="-15.602" transform="scale(1, -1)"
	style="font-family:Times;font-weight:normal;font-style:normal;font-size:10px">Small(10)</text>
<g transform="rotate(90)">
<text x="111.91" y="11.555" transform="scale(1, -1)"
	style="font-family:Times;font-weight:normal;font-style:normal;font-size:12px">ns/op</text>
</g>
<text x="35.494" y="-25.509" transform="scale(1, -1)"
	style="font-family:Times;font-weight:normal;font-style:normal;font-size:10px">0</text>
<text x="15.416" y="-113.72" transform="scale(1, -1)"
	style="font-family:Times;font-weight:normal;font-style:normal;font-size:10px">1e+07</text>
<text x="15.416" y="-201.92" transform="scale(1, -1)"
	style="font-family:Times;font-weight:normal;font-style:normal;font-size:10px">2e+07</text>
<path d="M42.994,30.23L50.994,30.23" style="fill:none;stroke:#000000;stroke-width:0.5" />
<path d="M42.994,118.44L50.994,118.44" style="fill:none;stroke:#000000;stroke-width:0.5" />
<path d="M42.994,206.65L50.994,206.65" style="fill:none;stroke:#000000;stroke-width:0.5" />
<path d="M46.994,47.872L50.994,47.872" style="fill:none;stroke:#000000;stroke-width:0.5" />
<path d="M46.994,65.513L50.994,65.513" style="fill:none;stroke:#000000;stroke-width:0.5" />
<path d="M46.994,83.155L50.994,83.155" style="fill:none;stroke:#000000;stroke-width:0.5" />
<path d="M46.994,100.8L50.994,100.8" style="fill:none;stroke:#000000;stroke-width:0.5" />
<path d="M46.994,136.08L50.994,136.08" style="fill:none;stroke:#000000;stroke-width:0.5" />
<path d="M46.994,153.72L50.994,153.72" style="fill:none;stroke:#000000;stroke-width:0.5" />
<path d="M46.994,171.36L50.994,171.36" style="fill:none;stroke:#000000;stroke-width:0.5" />
<path d="M46.994,189L50.994,189" style="fill:none;stroke:#000000;stroke-width:0.5" />
<path d="M50.994,30.23L50.994,219.58" style="fill:none;stroke:#000000;stroke-width:0.5" />
<path d="M76.642,30.23L76.642,219.58L106.64,219.58L106.64,30.23Z" style="fill:#F15A60" />
<path d="M240.82,30.23L240.82,48.45L270.82,48.45L270.82,30.23Z" style="fill:#F15A60" />
<path d="M405,30.23L405,32.118L435,32.118L435,30.23Z" style="fill:#F15A60" />
<path d="M106.64,30.23L106.64,37.063L136.64,37.063L136.64,30.23Z" style="fill:#7AC36A" />
<path d="M270.82,30.23L270.82,36.359L300.82,36.359L300.82,30.23Z" style="fill:#7AC36A" />
<path d="M435,30.23L435,31.34L465,31.34L465,30.23Z" style="fill:#7AC36A" />
<path d="M450,207.81L450,219.58L470,219.58L470,207.81Z" style="fill:#F15A60" />
<text x="413.67" y="-208.03" transform="scale(1, -1)"
	style="font-family:Times;font-weight:normal;font-style:normal;font-size:12px">Casbin</text>
<path d="M450,196.03L450,207.81L470,207.81L470,196.03Z" style="fill:#7AC36A" />
<text x="410.33" y="-196.25" transform="scale(1, -1)"
	style="font-family:Times;font-weight:normal;font-style:normal;font-size:12px">FastAC</text>
</g>
</svg>
