<?xml version="1.0"?>
<!-- Generated by SVGo and Plotinum VG -->
<svg width="560pt" height="280pt" viewBox="0 0 560 280"
	xmlns="http://www.w3.org/2000/svg"
	xmlns:xlink="http://www.w3.org/1999/xlink">
<g transform="scale(1, -1) translate(0, -280)">
<path d="M0,0L560,0L560,280L0,280Z" style="fill:#FFFFFF" />
<text x="219.18" y="-268.45" transform="scale(1, -1)"
	style="font-family:Times;font-weight:normal;font-style:normal;font-size:12px">ABAC-Benchmark Alloc</text>
<text x="311.45" y="-3.8613" transform="scale(1, -1)"
	style="font-family:Times;font-weight:normal;font-style:normal;font-size:12px">size</text>
<text x="101.67" y="-15.602" transform="scale(1, -1)"
	style="font-family:Times;font-weight:normal;font-style:normal;font-size:10px">Large(1000)</text>
<text x="293.01" y="-15.602" transform="scale(1, -1)"
	style="font-family:Times;font-weight:normal;font-style:normal;font-size:10px">Medium(100)</text>
<text x="495" y="-15.602" transform="scale(1, -1)"
	style="font-family:Times;font-weight:normal;font-style:normal;font-size:10px">Small(10)</text>
<g transform="rotate(90)">
<text x="125.75" y="11.555" transform="scale(1, -1)"
	style="font-family:Times;font-weight:normal;font-style:normal;font-size:12px">allocs/op</text>
</g>
<text x="40.416" y="-25.509" transform="scale(1, -1)"
	style="font-family:Times;font-weight:normal;font-style:normal;font-size:10px">0</text>
<text x="20.416" y="-96.48" transform="scale(1, -1)"
	style="font-family:Times;font-weight:normal;font-style:normal;font-size:10px">40000</text>
<text x="20.416" y="-167.45" transform="scale(1, -1)"
	style="font-family:Times;font-weight:normal;font-style:normal;font-size:10px">80000</text>
<text x="15.416" y="-238.42" transform="scale(1, -1)"
	style="font-family:Times;font-weight:normal;font-style:normal;font-size:10px">120000</text>
<path d="M47.916,30.23L55.916,30.23" style="fill:none;stroke:#000000;stroke-width:0.5" />
<path d="M47.916,101.2L55.916,101.2" style="fill:none;stroke:#000000;stroke-width:0.5" />
<path d="M47.916,172.17L55.916,172.17" style="fill:none;stroke:#000000;stroke-width:0.5" />
<path d="M47.916,243.15L55.916,243.15" style="fill:none;stroke:#000000;stroke-width:0.5" />
<path d="M51.916,47.973L55.916,47.973" style="fill:none;stroke:#000000;stroke-width:0.5" />
<path d="M51.916,65.716L55.916,65.716" style="fill:none;stroke:#000000;stroke-width:0.5" />
<path d="M51.916,83.459L55.916,83.459" style="fill:none;stroke:#000000;stroke-width:0.5" />
<path d="M51.916,118.94L55.916,118.94" style="fill:none;stroke:#000000;stroke-width:0.5" />
<path d="M51.916,136.69L55.916,136.69" style="fill:none;stroke:#000000;stroke-width:0.5" />
<path d="M51.916,154.43L55.916,154.43" style="fill:none;stroke:#000000;stroke-width:0.5" />
<path d="M51.916,189.92L55.916,189.92" style="fill:none;stroke:#000000;stroke-width:0.5" />
<path d="M51.916,207.66L55.916,207.66" style="fill:none;stroke:#000000;stroke-width:0.5" />
<path d="M51.916,225.4L55.916,225.4" style="fill:none;stroke:#000000;stroke-width:0.5" />
<path d="M51.916,260.89L55.916,260.89" style="fill:none;stroke:#000000;stroke-width:0.5" />
<path d="M55.916,30.23L55.916,264.58" style="fill:none;stroke:#000000;stroke-width:0.5" />
<path d="M81.563,30.23L81.563,264.58L111.56,264.58L111.56,30.23Z" style="fill:#F15A60" />
<path d="M275.78,30.23L275.78,53.679L305.78,53.679L305.78,30.23Z" style="fill:#F15A60" />
<path d="M470,30.23L470,32.588L500,32.588L500,30.23Z" style="fill:#F15A60" />
<path d="M111.56,30.23L111.56,99.681L141.56,99.681L141.56,30.23Z" style="fill:#7AC36A" />
<path d="M305.78,30.23L305.78,37.317L335.78,37.317L335.78,30.23Z" style="fill:#7AC36A" />
<path d="M500,30.23L500,31.079L530,31.079L530,30.23Z" style="fill:#7AC36A" />
<path d="M141.56,30.23L141.56,37.869L171.56,37.869L171.56,30.23Z" style="fill:#5A9BD4" />
<path d="M335.78,30.23L335.78,37.358L365.78,37.358L365.78,30.23Z" style="fill:#5A9BD4" />
<path d="M530,30.23L530,31.109L560,31.109L560,30.23Z" style="fill:#5A9BD4" />
<path d="M540,252.81L540,264.58L560,264.58L560,252.81Z" style="fill:#F15A60" />
<text x="503.67" y="-253.03" transform="scale(1, -1)"
	style="font-family:Times;font-weight:normal;font-style:normal;font-size:12px">Casbin</text>
<path d="M540,241.03L540,252.81L560,252.81L560,241.03Z" style="fill:#7AC36A" />
<text x="500.33" y="-241.25" transform="scale(1, -1)"
	style="font-family:Times;font-weight:normal;font-style:normal;font-size:12px">FastAC</text>
<path d="M540,229.25L540,241.03L560,241.03L560,229.25Z" style="fill:#5A9BD4" />
<text x="469.67" y="-229.47" transform="scale(1, -1)"
	style="font-family:Times;font-weight:normal;font-style:normal;font-size:12px">FastAC-index</text>
</g>
</svg>
