<?xml version="1.0"?>
<!-- Generated by SVGo and Plotinum VG -->
<svg width="560pt" height="280pt" viewBox="0 0 560 280"
	xmlns="http://www.w3.org/2000/svg"
	xmlns:xlink="http://www.w3.org/1999/xlink">
<g transform="scale(1, -1) translate(0, -280)">
<path d="M0,0L560,0L560,280L0,280Z" style="fill:#FFFFFF" />
<text x="235.67" y="-268.45" transform="scale(1, -1)"
	style="font-family:Times;font-weight:normal;font-style:normal;font-size:12px">BenchmarkABAC</text>
<text x="308.99" y="-3.8613" transform="scale(1, -1)"
	style="font-family:Times;font-weight:normal;font-style:normal;font-size:12px">size</text>
<text x="96.744" y="-15.602" transform="scale(1, -1)"
	style="font-family:Times;font-weight:normal;font-style:normal;font-size:10px">Large(1000)</text>
<text x="290.55" y="-15.602" transform="scale(1, -1)"
	style="font-family:Times;font-weight:normal;font-style:normal;font-size:10px">Medium(100)</text>
<text x="495" y="-15.602" transform="scale(1, -1)"
	style="font-family:Times;font-weight:normal;font-style:normal;font-size:10px">Small(10)</text>
<g transform="rotate(90)">
<text x="134.41" y="11.555" transform="scale(1, -1)"
	style="font-family:Times;font-weight:normal;font-style:normal;font-size:12px">ns/op</text>
</g>
<text x="35.494" y="-25.509" transform="scale(1, -1)"
	style="font-family:Times;font-weight:normal;font-style:normal;font-size:10px">0</text>
<text x="15.416" y="-101.24" transform="scale(1, -1)"
	style="font-family:Times;font-weight:normal;font-style:normal;font-size:10px">1e+07</text>
<text x="15.416" y="-176.96" transform="scale(1, -1)"
	style="font-family:Times;font-weight:normal;font-style:normal;font-size:10px">2e+07</text>
<text x="15.416" y="-252.69" transform="scale(1, -1)"
	style="font-family:Times;font-weight:normal;font-style:normal;font-size:10px">3e+07</text>
<path d="M42.994,30.23L50.994,30.23" style="fill:none;stroke:#000000;stroke-width:0.5" />
<path d="M42.994,105.96L50.994,105.96" style="fill:none;stroke:#000000;stroke-width:0.5" />
<path d="M42.994,181.68L50.994,181.68" style="fill:none;stroke:#000000;stroke-width:0.5" />
<path d="M42.994,257.41L50.994,257.41" style="fill:none;stroke:#000000;stroke-width:0.5" />
<path d="M46.994,45.376L50.994,45.376" style="fill:none;stroke:#000000;stroke-width:0.5" />
<path d="M46.994,60.521L50.994,60.521" style="fill:none;stroke:#000000;stroke-width:0.5" />
<path d="M46.994,75.667L50.994,75.667" style="fill:none;stroke:#000000;stroke-width:0.5" />
<path d="M46.994,90.812L50.994,90.812" style="fill:none;stroke:#000000;stroke-width:0.5" />
<path d="M46.994,121.1L50.994,121.1" style="fill:none;stroke:#000000;stroke-width:0.5" />
<path d="M46.994,136.25L50.994,136.25" style="fill:none;stroke:#000000;stroke-width:0.5" />
<path d="M46.994,151.39L50.994,151.39" style="fill:none;stroke:#000000;stroke-width:0.5" />
<path d="M46.994,166.54L50.994,166.54" style="fill:none;stroke:#000000;stroke-width:0.5" />
<path d="M46.994,196.83L50.994,196.83" style="fill:none;stroke:#000000;stroke-width:0.5" />
<path d="M46.994,211.97L50.994,211.97" style="fill:none;stroke:#000000;stroke-width:0.5" />
<path d="M46.994,227.12L50.994,227.12" style="fill:none;stroke:#000000;stroke-width:0.5" />
<path d="M46.994,242.27L50.994,242.27" style="fill:none;stroke:#000000;stroke-width:0.5" />
<path d="M50.994,30.23L50.994,264.58" style="fill:none;stroke:#000000;stroke-width:0.5" />
<path d="M76.642,30.23L76.642,264.58L106.64,264.58L106.64,30.23Z" style="fill:#F15A60" />
<path d="M273.32,30.23L273.32,53.458L303.32,53.458L303.32,30.23Z" style="fill:#F15A60" />
<path d="M470,30.23L470,32.22L500,32.22L500,30.23Z" style="fill:#F15A60" />
<path d="M106.64,30.23L106.64,82.003L136.64,82.003L136.64,30.23Z" style="fill:#7AC36A" />
<path d="M303.32,30.23L303.32,35.447L333.32,35.447L333.32,30.23Z" style="fill:#7AC36A" />
<path d="M500,30.23L500,30.86L530,30.86L530,30.23Z" style="fill:#7AC36A" />
<path d="M136.64,30.23L136.64,36.066L166.64,36.066L166.64,30.23Z" style="fill:#5A9BD4" />
<path d="M333.32,30.23L333.32,35.229L363.32,35.229L363.32,30.23Z" style="fill:#5A9BD4" />
<path d="M530,30.23L530,30.842L560,30.842L560,30.23Z" style="fill:#5A9BD4" />
<path d="M540,252.81L540,264.58L560,264.58L560,252.81Z" style="fill:#F15A60" />
<text x="506.34" y="-253.03" transform="scale(1, -1)"
	style="font-family:Times;font-weight:normal;font-style:normal;font-size:12px">casbin</text>
<path d="M540,241.03L540,252.81L560,252.81L560,241.03Z" style="fill:#7AC36A" />
<text x="509.02" y="-241.25" transform="scale(1, -1)"
	style="font-family:Times;font-weight:normal;font-style:normal;font-size:12px">fastac</text>
<path d="M540,229.25L540,241.03L560,241.03L560,229.25Z" style="fill:#5A9BD4" />
<text x="478.37" y="-229.47" transform="scale(1, -1)"
	style="font-family:Times;font-weight:normal;font-style:normal;font-size:12px">fastac-index</text>
</g>
</svg>
