<?xml version="1.0"?>
<!-- Generated by SVGo and Plotinum VG -->
<svg width="560pt" height="280pt" viewBox="0 0 560 280"
	xmlns="http://www.w3.org/2000/svg"
	xmlns:xlink="http://www.w3.org/1999/xlink">
<g transform="scale(1, -1) translate(0, -280)">
<path d="M0,0L560,0L560,280L0,280Z" style="fill:#FFFFFF" />
<text x="235.67" y="-268.45" transform="scale(1, -1)"
	style="font-family:Times;font-weight:normal;font-style:normal;font-size:12px">BenchmarkABAC</text>
<text x="304.79" y="-3.8613" transform="scale(1, -1)"
	style="font-family:Times;font-weight:normal;font-style:normal;font-size:12px">size</text>
<text x="101.67" y="-15.602" transform="scale(1, -1)"
	style="font-family:Times;font-weight:normal;font-style:normal;font-size:10px">Large</text>
<text x="297.17" y="-15.602" transform="scale(1, -1)"
	style="font-family:Times;font-weight:normal;font-style:normal;font-size:10px">Medium</text>
<text x="503.33" y="-15.602" transform="scale(1, -1)"
	style="font-family:Times;font-weight:normal;font-style:normal;font-size:10px">Small</text>
<g transform="rotate(90)">
<text x="125.75" y="11.555" transform="scale(1, -1)"
	style="font-family:Times;font-weight:normal;font-style:normal;font-size:12px">allocs/op</text>
</g>
<text x="40.416" y="-25.509" transform="scale(1, -1)"
	style="font-family:Times;font-weight:normal;font-style:normal;font-size:10px">0</text>
<text x="20.416" y="-95.948" transform="scale(1, -1)"
	style="font-family:Times;font-weight:normal;font-style:normal;font-size:10px">40000</text>
<text x="20.416" y="-166.39" transform="scale(1, -1)"
	style="font-family:Times;font-weight:normal;font-style:normal;font-size:10px">80000</text>
<text x="15.416" y="-236.83" transform="scale(1, -1)"
	style="font-family:Times;font-weight:normal;font-style:normal;font-size:10px">120000</text>
<path d="M47.916,30.23L55.916,30.23" style="fill:none;stroke:#000000;stroke-width:0.5" />
<path d="M47.916,100.67L55.916,100.67" style="fill:none;stroke:#000000;stroke-width:0.5" />
<path d="M47.916,171.11L55.916,171.11" style="fill:none;stroke:#000000;stroke-width:0.5" />
<path d="M47.916,241.55L55.916,241.55" style="fill:none;stroke:#000000;stroke-width:0.5" />
<path d="M51.916,47.84L55.916,47.84" style="fill:none;stroke:#000000;stroke-width:0.5" />
<path d="M51.916,65.45L55.916,65.45" style="fill:none;stroke:#000000;stroke-width:0.5" />
<path d="M51.916,83.06L55.916,83.06" style="fill:none;stroke:#000000;stroke-width:0.5" />
<path d="M51.916,118.28L55.916,118.28" style="fill:none;stroke:#000000;stroke-width:0.5" />
<path d="M51.916,135.89L55.916,135.89" style="fill:none;stroke:#000000;stroke-width:0.5" />
<path d="M51.916,153.5L55.916,153.5" style="fill:none;stroke:#000000;stroke-width:0.5" />
<path d="M51.916,188.72L55.916,188.72" style="fill:none;stroke:#000000;stroke-width:0.5" />
<path d="M51.916,206.33L55.916,206.33" style="fill:none;stroke:#000000;stroke-width:0.5" />
<path d="M51.916,223.94L55.916,223.94" style="fill:none;stroke:#000000;stroke-width:0.5" />
<path d="M51.916,259.16L55.916,259.16" style="fill:none;stroke:#000000;stroke-width:0.5" />
<path d="M55.916,30.23L55.916,264.58" style="fill:none;stroke:#000000;stroke-width:0.5" />
<path d="M68.233,30.23L68.233,264.58L98.233,264.58L98.233,30.23Z" style="fill:#F15A60" />
<path d="M269.12,30.23L269.12,53.68L299.12,53.68L299.12,30.23Z" style="fill:#F15A60" />
<path d="M470,30.23L470,32.588L500,32.588L500,30.23Z" style="fill:#F15A60" />
<path d="M98.233,30.23L98.233,100.9L128.23,100.9L128.23,30.23Z" style="fill:#7AC36A" />
<path d="M299.12,30.23L299.12,37.417L329.12,37.417L329.12,30.23Z" style="fill:#7AC36A" />
<path d="M500,30.23L500,31.067L530,31.067L530,30.23Z" style="fill:#7AC36A" />
<path d="M128.23,30.23L128.23,37.966L158.23,37.966L158.23,30.23Z" style="fill:#5A9BD4" />
<path d="M329.12,30.23L329.12,37.459L359.12,37.459L359.12,30.23Z" style="fill:#5A9BD4" />
<path d="M530,30.23L530,31.099L560,31.099L560,30.23Z" style="fill:#5A9BD4" />
<path d="M540,252.81L540,264.58L560,264.58L560,252.81Z" style="fill:#F15A60" />
<text x="506.34" y="-253.03" transform="scale(1, -1)"
	style="font-family:Times;font-weight:normal;font-style:normal;font-size:12px">casbin</text>
<path d="M540,241.03L540,252.81L560,252.81L560,241.03Z" style="fill:#7AC36A" />
<text x="509.02" y="-241.25" transform="scale(1, -1)"
	style="font-family:Times;font-weight:normal;font-style:normal;font-size:12px">fastac</text>
<path d="M540,229.25L540,241.03L560,241.03L560,229.25Z" style="fill:#5A9BD4" />
<text x="478.37" y="-229.47" transform="scale(1, -1)"
	style="font-family:Times;font-weight:normal;font-style:normal;font-size:12px">fastac-index</text>
</g>
</svg>
