<?xml version="1.0"?>
<!-- Generated by SVGo and Plotinum VG -->
<svg width="560pt" height="280pt" viewBox="0 0 560 280"
	xmlns="http://www.w3.org/2000/svg"
	xmlns:xlink="http://www.w3.org/1999/xlink">
<g transform="scale(1, -1) translate(0, -280)">
<path d="M0,0L560,0L560,280L0,280Z" style="fill:#FFFFFF" />
<text x="226.68" y="-268.45" transform="scale(1, -1)"
	style="font-family:Times;font-weight:normal;font-style:normal;font-size:12px">BenchmarkAddPolicy</text>
<text x="302.7" y="-3.8613" transform="scale(1, -1)"
	style="font-family:Times;font-weight:normal;font-style:normal;font-size:12px">size</text>
<text x="81.666" y="-15.602" transform="scale(1, -1)"
	style="font-family:Times;font-weight:normal;font-style:normal;font-size:10px">Large(10000)</text>
<text x="281.76" y="-15.602" transform="scale(1, -1)"
	style="font-family:Times;font-weight:normal;font-style:normal;font-size:10px">Medium(1000)</text>
<text x="495.84" y="-15.602" transform="scale(1, -1)"
	style="font-family:Times;font-weight:normal;font-style:normal;font-size:10px">Empty(0)</text>
<g transform="rotate(90)">
<text x="125.75" y="11.555" transform="scale(1, -1)"
	style="font-family:Times;font-weight:normal;font-style:normal;font-size:12px">allocs/op</text>
</g>
<text x="20.416" y="-25.509" transform="scale(1, -1)"
	style="font-family:Times;font-weight:normal;font-style:normal;font-size:10px">0</text>
<text x="20.416" y="-135.79" transform="scale(1, -1)"
	style="font-family:Times;font-weight:normal;font-style:normal;font-size:10px">8</text>
<text x="15.416" y="-246.08" transform="scale(1, -1)"
	style="font-family:Times;font-weight:normal;font-style:normal;font-size:10px">16</text>
<path d="M27.916,30.23L35.916,30.23" style="fill:none;stroke:#000000;stroke-width:0.5" />
<path d="M27.916,140.51L35.916,140.51" style="fill:none;stroke:#000000;stroke-width:0.5" />
<path d="M27.916,250.8L35.916,250.8" style="fill:none;stroke:#000000;stroke-width:0.5" />
<path d="M31.916,85.372L35.916,85.372" style="fill:none;stroke:#000000;stroke-width:0.5" />
<path d="M31.916,195.66L35.916,195.66" style="fill:none;stroke:#000000;stroke-width:0.5" />
<path d="M35.916,30.23L35.916,264.58" style="fill:none;stroke:#000000;stroke-width:0.5" />
<path d="M64.063,30.23L64.063,209.44L94.063,209.44L94.063,30.23Z" style="fill:#F15A60" />
<path d="M267.03,30.23L267.03,209.44L297.03,209.44L297.03,30.23Z" style="fill:#F15A60" />
<path d="M470,30.23L470,209.44L500,209.44L500,30.23Z" style="fill:#F15A60" />
<path d="M94.063,30.23L94.063,250.8L124.06,250.8L124.06,30.23Z" style="fill:#7AC36A" />
<path d="M297.03,30.23L297.03,250.8L327.03,250.8L327.03,30.23Z" style="fill:#7AC36A" />
<path d="M500,30.23L500,250.8L530,250.8L530,30.23Z" style="fill:#7AC36A" />
<path d="M124.06,30.23L124.06,264.58L154.06,264.58L154.06,30.23Z" style="fill:#5A9BD4" />
<path d="M327.03,30.23L327.03,264.58L357.03,264.58L357.03,30.23Z" style="fill:#5A9BD4" />
<path d="M530,30.23L530,264.58L560,264.58L560,30.23Z" style="fill:#5A9BD4" />
<path d="M540,252.81L540,264.58L560,264.58L560,252.81Z" style="fill:#F15A60" />
<text x="503.67" y="-253.03" transform="scale(1, -1)"
	style="font-family:Times;font-weight:normal;font-style:normal;font-size:12px">Casbin</text>
<path d="M540,241.03L540,252.81L560,252.81L560,241.03Z" style="fill:#7AC36A" />
<text x="500.33" y="-241.25" transform="scale(1, -1)"
	style="font-family:Times;font-weight:normal;font-style:normal;font-size:12px">FastAC</text>
<path d="M540,229.25L540,241.03L560,241.03L560,229.25Z" style="fill:#5A9BD4" />
<text x="469.67" y="-229.47" transform="scale(1, -1)"
	style="font-family:Times;font-weight:normal;font-style:normal;font-size:12px">FastAC-index</text>
</g>
</svg>
