<?xml version="1.0"?>
<!-- Generated by SVGo and Plotinum VG -->
<svg width="470pt" height="235pt" viewBox="0 0 470 235"
	xmlns="http://www.w3.org/2000/svg"
	xmlns:xlink="http://www.w3.org/1999/xlink">
<g transform="scale(1, -1) translate(0, -235)">
<path d="M0,0L470,0L470,235L0,235Z" style="fill:#FFFFFF" />
<text x="181.68" y="-223.45" transform="scale(1, -1)"
	style="font-family:Times;font-weight:normal;font-style:normal;font-size:12px">BenchmarkAddPolicy</text>
<text x="270.62" y="-3.8613" transform="scale(1, -1)"
	style="font-family:Times;font-weight:normal;font-style:normal;font-size:12px">size</text>
<text x="81.666" y="-15.602" transform="scale(1, -1)"
	style="font-family:Times;font-weight:normal;font-style:normal;font-size:10px">Large(10000)</text>
<text x="249.68" y="-15.602" transform="scale(1, -1)"
	style="font-family:Times;font-weight:normal;font-style:normal;font-size:10px">Medium(1000)</text>
<text x="431.67" y="-15.602" transform="scale(1, -1)"
	style="font-family:Times;font-weight:normal;font-style:normal;font-size:10px">Empty(0)</text>
<g transform="rotate(90)">
<text x="103.25" y="11.555" transform="scale(1, -1)"
	style="font-family:Times;font-weight:normal;font-style:normal;font-size:12px">allocs/op</text>
</g>
<text x="20.416" y="-25.509" transform="scale(1, -1)"
	style="font-family:Times;font-weight:normal;font-style:normal;font-size:10px">0</text>
<text x="15.416" y="-115.68" transform="scale(1, -1)"
	style="font-family:Times;font-weight:normal;font-style:normal;font-size:10px">10</text>
<text x="15.416" y="-205.85" transform="scale(1, -1)"
	style="font-family:Times;font-weight:normal;font-style:normal;font-size:10px">20</text>
<path d="M27.916,30.23L35.916,30.23" style="fill:none;stroke:#000000;stroke-width:0.5" />
<path d="M27.916,120.4L35.916,120.4" style="fill:none;stroke:#000000;stroke-width:0.5" />
<path d="M27.916,210.57L35.916,210.57" style="fill:none;stroke:#000000;stroke-width:0.5" />
<path d="M31.916,48.264L35.916,48.264" style="fill:none;stroke:#000000;stroke-width:0.5" />
<path d="M31.916,66.298L35.916,66.298" style="fill:none;stroke:#000000;stroke-width:0.5" />
<path d="M31.916,84.331L35.916,84.331" style="fill:none;stroke:#000000;stroke-width:0.5" />
<path d="M31.916,102.37L35.916,102.37" style="fill:none;stroke:#000000;stroke-width:0.5" />
<path d="M31.916,138.43L35.916,138.43" style="fill:none;stroke:#000000;stroke-width:0.5" />
<path d="M31.916,156.47L35.916,156.47" style="fill:none;stroke:#000000;stroke-width:0.5" />
<path d="M31.916,174.5L35.916,174.5" style="fill:none;stroke:#000000;stroke-width:0.5" />
<path d="M31.916,192.53L35.916,192.53" style="fill:none;stroke:#000000;stroke-width:0.5" />
<path d="M35.916,30.23L35.916,219.58" style="fill:none;stroke:#000000;stroke-width:0.5" />
<path d="M64.063,30.23L64.063,147.45L94.063,147.45L94.063,30.23Z" style="fill:#F15A60" />
<path d="M234.95,30.23L234.95,147.45L264.95,147.45L264.95,30.23Z" style="fill:#F15A60" />
<path d="M405.84,30.23L405.84,147.45L435.84,147.45L435.84,30.23Z" style="fill:#F15A60" />
<path d="M94.063,30.23L94.063,219.58L124.06,219.58L124.06,30.23Z" style="fill:#7AC36A" />
<path d="M264.95,30.23L264.95,219.58L294.95,219.58L294.95,30.23Z" style="fill:#7AC36A" />
<path d="M435.84,30.23L435.84,219.58L465.84,219.58L465.84,30.23Z" style="fill:#7AC36A" />
<path d="M450,207.81L450,219.58L470,219.58L470,207.81Z" style="fill:#F15A60" />
<text x="413.67" y="-208.03" transform="scale(1, -1)"
	style="font-family:Times;font-weight:normal;font-style:normal;font-size:12px">Casbin</text>
<path d="M450,196.03L450,207.81L470,207.81L470,196.03Z" style="fill:#7AC36A" />
<text x="410.33" y="-196.25" transform="scale(1, -1)"
	style="font-family:Times;font-weight:normal;font-style:normal;font-size:12px">FastAC</text>
</g>
</svg>
