<?xml version="1.0"?>
<!-- Generated by SVGo and Plotinum VG -->
<svg width="560pt" height="280pt" viewBox="0 0 560 280"
	xmlns="http://www.w3.org/2000/svg"
	xmlns:xlink="http://www.w3.org/1999/xlink">
<g transform="scale(1, -1) translate(0, -280)">
<path d="M0,0L560,0L560,280L0,280Z" style="fill:#FFFFFF" />
<text x="226.68" y="-268.45" transform="scale(1, -1)"
	style="font-family:Times;font-weight:normal;font-style:normal;font-size:12px">BenchmarkAddPolicy</text>
<text x="294.79" y="-3.8613" transform="scale(1, -1)"
	style="font-family:Times;font-weight:normal;font-style:normal;font-size:12px">size</text>
<text x="81.666" y="-15.602" transform="scale(1, -1)"
	style="font-family:Times;font-weight:normal;font-style:normal;font-size:10px">Large</text>
<text x="287.17" y="-15.602" transform="scale(1, -1)"
	style="font-family:Times;font-weight:normal;font-style:normal;font-size:10px">Medium</text>
<text x="501.67" y="-15.602" transform="scale(1, -1)"
	style="font-family:Times;font-weight:normal;font-style:normal;font-size:10px">Empty</text>
<g transform="rotate(90)">
<text x="125.75" y="11.555" transform="scale(1, -1)"
	style="font-family:Times;font-weight:normal;font-style:normal;font-size:12px">allocs/op</text>
</g>
<text x="20.416" y="-25.509" transform="scale(1, -1)"
	style="font-family:Times;font-weight:normal;font-style:normal;font-size:10px">0</text>
<text x="20.416" y="-97.618" transform="scale(1, -1)"
	style="font-family:Times;font-weight:normal;font-style:normal;font-size:10px">4</text>
<text x="20.416" y="-169.73" transform="scale(1, -1)"
	style="font-family:Times;font-weight:normal;font-style:normal;font-size:10px">8</text>
<text x="15.416" y="-241.84" transform="scale(1, -1)"
	style="font-family:Times;font-weight:normal;font-style:normal;font-size:10px">12</text>
<path d="M27.916,30.23L35.916,30.23" style="fill:none;stroke:#000000;stroke-width:0.5" />
<path d="M27.916,102.34L35.916,102.34" style="fill:none;stroke:#000000;stroke-width:0.5" />
<path d="M27.916,174.45L35.916,174.45" style="fill:none;stroke:#000000;stroke-width:0.5" />
<path d="M27.916,246.56L35.916,246.56" style="fill:none;stroke:#000000;stroke-width:0.5" />
<path d="M31.916,48.258L35.916,48.258" style="fill:none;stroke:#000000;stroke-width:0.5" />
<path d="M31.916,66.285L35.916,66.285" style="fill:none;stroke:#000000;stroke-width:0.5" />
<path d="M31.916,84.312L35.916,84.312" style="fill:none;stroke:#000000;stroke-width:0.5" />
<path d="M31.916,120.37L35.916,120.37" style="fill:none;stroke:#000000;stroke-width:0.5" />
<path d="M31.916,138.39L35.916,138.39" style="fill:none;stroke:#000000;stroke-width:0.5" />
<path d="M31.916,156.42L35.916,156.42" style="fill:none;stroke:#000000;stroke-width:0.5" />
<path d="M31.916,192.48L35.916,192.48" style="fill:none;stroke:#000000;stroke-width:0.5" />
<path d="M31.916,210.5L35.916,210.5" style="fill:none;stroke:#000000;stroke-width:0.5" />
<path d="M31.916,228.53L35.916,228.53" style="fill:none;stroke:#000000;stroke-width:0.5" />
<path d="M31.916,264.58L35.916,264.58" style="fill:none;stroke:#000000;stroke-width:0.5" />
<path d="M35.916,30.23L35.916,264.58" style="fill:none;stroke:#000000;stroke-width:0.5" />
<path d="M48.233,30.23L48.233,246.56L78.233,246.56L78.233,30.23Z" style="fill:#F15A60" />
<path d="M259.12,30.23L259.12,246.56L289.12,246.56L289.12,30.23Z" style="fill:#F15A60" />
<path d="M470,30.23L470,246.56L500,246.56L500,30.23Z" style="fill:#F15A60" />
<path d="M78.233,30.23L78.233,246.56L108.23,246.56L108.23,30.23Z" style="fill:#7AC36A" />
<path d="M289.12,30.23L289.12,246.56L319.12,246.56L319.12,30.23Z" style="fill:#7AC36A" />
<path d="M500,30.23L500,246.56L530,246.56L530,30.23Z" style="fill:#7AC36A" />
<path d="M108.23,30.23L108.23,264.58L138.23,264.58L138.23,30.23Z" style="fill:#5A9BD4" />
<path d="M319.12,30.23L319.12,264.58L349.12,264.58L349.12,30.23Z" style="fill:#5A9BD4" />
<path d="M530,30.23L530,264.58L560,264.58L560,30.23Z" style="fill:#5A9BD4" />
<path d="M540,252.81L540,264.58L560,264.58L560,252.81Z" style="fill:#F15A60" />
<text x="506.34" y="-253.03" transform="scale(1, -1)"
	style="font-family:Times;font-weight:normal;font-style:normal;font-size:12px">casbin</text>
<path d="M540,241.03L540,252.81L560,252.81L560,241.03Z" style="fill:#7AC36A" />
<text x="509.02" y="-241.25" transform="scale(1, -1)"
	style="font-family:Times;font-weight:normal;font-style:normal;font-size:12px">fastac</text>
<path d="M540,229.25L540,241.03L560,241.03L560,229.25Z" style="fill:#5A9BD4" />
<text x="478.37" y="-229.47" transform="scale(1, -1)"
	style="font-family:Times;font-weight:normal;font-style:normal;font-size:12px">fastac-index</text>
</g>
</svg>
