<?xml version="1.0"?>
<!-- Generated by SVGo and Plotinum VG -->
<svg width="470pt" height="235pt" viewBox="0 0 470 235"
	xmlns="http://www.w3.org/2000/svg"
	xmlns:xlink="http://www.w3.org/1999/xlink">
<g transform="scale(1, -1) translate(0, -235)">
<path d="M0,0L470,0L470,235L0,235Z" style="fill:#FFFFFF" />
<text x="211.83" y="-223.45" transform="scale(1, -1)"
	style="font-family:Times;font-weight:normal;font-style:normal;font-size:12px">Add Rule</text>
<text x="275.62" y="-3.8613" transform="scale(1, -1)"
	style="font-family:Times;font-weight:normal;font-style:normal;font-size:12px">size</text>
<text x="91.666" y="-15.602" transform="scale(1, -1)"
	style="font-family:Times;font-weight:normal;font-style:normal;font-size:10px">Large(10000)</text>
<text x="254.68" y="-15.602" transform="scale(1, -1)"
	style="font-family:Times;font-weight:normal;font-style:normal;font-size:10px">Medium(1000)</text>
<text x="431.67" y="-15.602" transform="scale(1, -1)"
	style="font-family:Times;font-weight:normal;font-style:normal;font-size:10px">Empty(0)</text>
<g transform="rotate(90)">
<text x="111.91" y="11.555" transform="scale(1, -1)"
	style="font-family:Times;font-weight:normal;font-style:normal;font-size:12px">ns/op</text>
</g>
<text x="30.416" y="-25.509" transform="scale(1, -1)"
	style="font-family:Times;font-weight:normal;font-style:normal;font-size:10px">0</text>
<text x="15.416" y="-110.04" transform="scale(1, -1)"
	style="font-family:Times;font-weight:normal;font-style:normal;font-size:10px">1000</text>
<text x="15.416" y="-194.57" transform="scale(1, -1)"
	style="font-family:Times;font-weight:normal;font-style:normal;font-size:10px">2000</text>
<path d="M37.916,30.23L45.916,30.23" style="fill:none;stroke:#000000;stroke-width:0.5" />
<path d="M37.916,114.76L45.916,114.76" style="fill:none;stroke:#000000;stroke-width:0.5" />
<path d="M37.916,199.3L45.916,199.3" style="fill:none;stroke:#000000;stroke-width:0.5" />
<path d="M41.916,47.137L45.916,47.137" style="fill:none;stroke:#000000;stroke-width:0.5" />
<path d="M41.916,64.044L45.916,64.044" style="fill:none;stroke:#000000;stroke-width:0.5" />
<path d="M41.916,80.95L45.916,80.95" style="fill:none;stroke:#000000;stroke-width:0.5" />
<path d="M41.916,97.857L45.916,97.857" style="fill:none;stroke:#000000;stroke-width:0.5" />
<path d="M41.916,131.67L45.916,131.67" style="fill:none;stroke:#000000;stroke-width:0.5" />
<path d="M41.916,148.58L45.916,148.58" style="fill:none;stroke:#000000;stroke-width:0.5" />
<path d="M41.916,165.48L45.916,165.48" style="fill:none;stroke:#000000;stroke-width:0.5" />
<path d="M41.916,182.39L45.916,182.39" style="fill:none;stroke:#000000;stroke-width:0.5" />
<path d="M41.916,216.2L45.916,216.2" style="fill:none;stroke:#000000;stroke-width:0.5" />
<path d="M45.916,30.23L45.916,219.58" style="fill:none;stroke:#000000;stroke-width:0.5" />
<path d="M74.063,30.23L74.063,145.03L104.06,145.03L104.06,30.23Z" style="fill:#F15A60" />
<path d="M239.95,30.23L239.95,165.91L269.95,165.91L269.95,30.23Z" style="fill:#F15A60" />
<path d="M405.84,30.23L405.84,163.62L435.84,163.62L435.84,30.23Z" style="fill:#F15A60" />
<path d="M104.06,30.23L104.06,199.47L134.06,199.47L134.06,30.23Z" style="fill:#7AC36A" />
<path d="M269.95,30.23L269.95,210.71L299.95,210.71L299.95,30.23Z" style="fill:#7AC36A" />
<path d="M435.84,30.23L435.84,219.58L465.84,219.58L465.84,30.23Z" style="fill:#7AC36A" />
<path d="M450,207.81L450,219.58L470,219.58L470,207.81Z" style="fill:#F15A60" />
<text x="413.67" y="-208.03" transform="scale(1, -1)"
	style="font-family:Times;font-weight:normal;font-style:normal;font-size:12px">Casbin</text>
<path d="M450,196.03L450,207.81L470,207.81L470,196.03Z" style="fill:#7AC36A" />
<text x="410.33" y="-196.25" transform="scale(1, -1)"
	style="font-family:Times;font-weight:normal;font-style:normal;font-size:12px">FastAC</text>
</g>
</svg>
