<?xml version="1.0"?>
<!-- Generated by SVGo and Plotinum VG -->
<svg width="560pt" height="280pt" viewBox="0 0 560 280"
	xmlns="http://www.w3.org/2000/svg"
	xmlns:xlink="http://www.w3.org/1999/xlink">
<g transform="scale(1, -1) translate(0, -280)">
<path d="M0,0L560,0L560,280L0,280Z" style="fill:#FFFFFF" />
<text x="226.68" y="-268.45" transform="scale(1, -1)"
	style="font-family:Times;font-weight:normal;font-style:normal;font-size:12px">BenchmarkAddPolicy</text>
<text x="307.7" y="-3.8613" transform="scale(1, -1)"
	style="font-family:Times;font-weight:normal;font-style:normal;font-size:12px">size</text>
<text x="91.666" y="-15.602" transform="scale(1, -1)"
	style="font-family:Times;font-weight:normal;font-style:normal;font-size:10px">Large(10000)</text>
<text x="286.76" y="-15.602" transform="scale(1, -1)"
	style="font-family:Times;font-weight:normal;font-style:normal;font-size:10px">Medium(1000)</text>
<text x="495.84" y="-15.602" transform="scale(1, -1)"
	style="font-family:Times;font-weight:normal;font-style:normal;font-size:10px">Empty(0)</text>
<g transform="rotate(90)">
<text x="134.41" y="11.555" transform="scale(1, -1)"
	style="font-family:Times;font-weight:normal;font-style:normal;font-size:12px">ns/op</text>
</g>
<text x="30.416" y="-25.509" transform="scale(1, -1)"
	style="font-family:Times;font-weight:normal;font-style:normal;font-size:10px">0</text>
<text x="20.416" y="-133.23" transform="scale(1, -1)"
	style="font-family:Times;font-weight:normal;font-style:normal;font-size:10px">900</text>
<text x="15.416" y="-240.95" transform="scale(1, -1)"
	style="font-family:Times;font-weight:normal;font-style:normal;font-size:10px">1800</text>
<path d="M37.916,30.23L45.916,30.23" style="fill:none;stroke:#000000;stroke-width:0.5" />
<path d="M37.916,137.95L45.916,137.95" style="fill:none;stroke:#000000;stroke-width:0.5" />
<path d="M37.916,245.67L45.916,245.67" style="fill:none;stroke:#000000;stroke-width:0.5" />
<path d="M41.916,84.091L45.916,84.091" style="fill:none;stroke:#000000;stroke-width:0.5" />
<path d="M41.916,191.81L45.916,191.81" style="fill:none;stroke:#000000;stroke-width:0.5" />
<path d="M45.916,30.23L45.916,264.58" style="fill:none;stroke:#000000;stroke-width:0.5" />
<path d="M74.063,30.23L74.063,194.09L104.06,194.09L104.06,30.23Z" style="fill:#F15A60" />
<path d="M272.03,30.23L272.03,202.23L302.03,202.23L302.03,30.23Z" style="fill:#F15A60" />
<path d="M470,30.23L470,196.84L500,196.84L500,30.23Z" style="fill:#F15A60" />
<path d="M104.06,30.23L104.06,220.9L134.06,220.9L134.06,30.23Z" style="fill:#7AC36A" />
<path d="M302.03,30.23L302.03,262.43L332.03,262.43L332.03,30.23Z" style="fill:#7AC36A" />
<path d="M500,30.23L500,264.58L530,264.58L530,30.23Z" style="fill:#7AC36A" />
<path d="M134.06,30.23L134.06,225.56L164.06,225.56L164.06,30.23Z" style="fill:#5A9BD4" />
<path d="M332.03,30.23L332.03,242.8L362.03,242.8L362.03,30.23Z" style="fill:#5A9BD4" />
<path d="M530,30.23L530,251.42L560,251.42L560,30.23Z" style="fill:#5A9BD4" />
<path d="M540,252.81L540,264.58L560,264.58L560,252.81Z" style="fill:#F15A60" />
<text x="503.67" y="-253.03" transform="scale(1, -1)"
	style="font-family:Times;font-weight:normal;font-style:normal;font-size:12px">Casbin</text>
<path d="M540,241.03L540,252.81L560,252.81L560,241.03Z" style="fill:#7AC36A" />
<text x="500.33" y="-241.25" transform="scale(1, -1)"
	style="font-family:Times;font-weight:normal;font-style:normal;font-size:12px">FastAC</text>
<path d="M540,229.25L540,241.03L560,241.03L560,229.25Z" style="fill:#5A9BD4" />
<text x="469.67" y="-229.47" transform="scale(1, -1)"
	style="font-family:Times;font-weight:normal;font-style:normal;font-size:12px">FastAC-index</text>
</g>
</svg>
