<?xml version="1.0"?>
<!-- Generated by SVGo and Plotinum VG -->
<svg width="560pt" height="280pt" viewBox="0 0 560 280"
	xmlns="http://www.w3.org/2000/svg"
	xmlns:xlink="http://www.w3.org/1999/xlink">
<g transform="scale(1, -1) translate(0, -280)">
<path d="M0,0L560,0L560,280L0,280Z" style="fill:#FFFFFF" />
<text x="226.68" y="-268.45" transform="scale(1, -1)"
	style="font-family:Times;font-weight:normal;font-style:normal;font-size:12px">BenchmarkAddPolicy</text>
<text x="307.7" y="-3.8613" transform="scale(1, -1)"
	style="font-family:Times;font-weight:normal;font-style:normal;font-size:12px">size</text>
<text x="91.666" y="-15.602" transform="scale(1, -1)"
	style="font-family:Times;font-weight:normal;font-style:normal;font-size:10px">Large(10000)</text>
<text x="286.76" y="-15.602" transform="scale(1, -1)"
	style="font-family:Times;font-weight:normal;font-style:normal;font-size:10px">Medium(1000)</text>
<text x="495.84" y="-15.602" transform="scale(1, -1)"
	style="font-family:Times;font-weight:normal;font-style:normal;font-size:10px">Empty(0)</text>
<g transform="rotate(90)">
<text x="134.41" y="11.555" transform="scale(1, -1)"
	style="font-family:Times;font-weight:normal;font-style:normal;font-size:12px">ns/op</text>
</g>
<text x="30.416" y="-25.509" transform="scale(1, -1)"
	style="font-family:Times;font-weight:normal;font-style:normal;font-size:10px">0</text>
<text x="15.416" y="-136.68" transform="scale(1, -1)"
	style="font-family:Times;font-weight:normal;font-style:normal;font-size:10px">1000</text>
<text x="15.416" y="-247.86" transform="scale(1, -1)"
	style="font-family:Times;font-weight:normal;font-style:normal;font-size:10px">2000</text>
<path d="M37.916,30.23L45.916,30.23" style="fill:none;stroke:#000000;stroke-width:0.5" />
<path d="M37.916,141.4L45.916,141.4" style="fill:none;stroke:#000000;stroke-width:0.5" />
<path d="M37.916,252.58L45.916,252.58" style="fill:none;stroke:#000000;stroke-width:0.5" />
<path d="M41.916,52.465L45.916,52.465" style="fill:none;stroke:#000000;stroke-width:0.5" />
<path d="M41.916,74.7L45.916,74.7" style="fill:none;stroke:#000000;stroke-width:0.5" />
<path d="M41.916,96.935L45.916,96.935" style="fill:none;stroke:#000000;stroke-width:0.5" />
<path d="M41.916,119.17L45.916,119.17" style="fill:none;stroke:#000000;stroke-width:0.5" />
<path d="M41.916,163.64L45.916,163.64" style="fill:none;stroke:#000000;stroke-width:0.5" />
<path d="M41.916,185.87L45.916,185.87" style="fill:none;stroke:#000000;stroke-width:0.5" />
<path d="M41.916,208.11L45.916,208.11" style="fill:none;stroke:#000000;stroke-width:0.5" />
<path d="M41.916,230.34L45.916,230.34" style="fill:none;stroke:#000000;stroke-width:0.5" />
<path d="M45.916,30.23L45.916,264.58" style="fill:none;stroke:#000000;stroke-width:0.5" />
<path d="M74.063,30.23L74.063,185.54L104.06,185.54L104.06,30.23Z" style="fill:#F15A60" />
<path d="M272.03,30.23L272.03,203.11L302.03,203.11L302.03,30.23Z" style="fill:#F15A60" />
<path d="M470,30.23L470,204.77L500,204.77L500,30.23Z" style="fill:#F15A60" />
<path d="M104.06,30.23L104.06,252.69L134.06,252.69L134.06,30.23Z" style="fill:#7AC36A" />
<path d="M302.03,30.23L302.03,264.58L332.03,264.58L332.03,30.23Z" style="fill:#7AC36A" />
<path d="M500,30.23L500,243.79L530,243.79L530,30.23Z" style="fill:#7AC36A" />
<path d="M134.06,30.23L134.06,229.34L164.06,229.34L164.06,30.23Z" style="fill:#5A9BD4" />
<path d="M332.03,30.23L332.03,232.9L362.03,232.9L362.03,30.23Z" style="fill:#5A9BD4" />
<path d="M530,30.23L530,239.35L560,239.35L560,30.23Z" style="fill:#5A9BD4" />
<path d="M540,252.81L540,264.58L560,264.58L560,252.81Z" style="fill:#F15A60" />
<text x="503.67" y="-253.03" transform="scale(1, -1)"
	style="font-family:Times;font-weight:normal;font-style:normal;font-size:12px">Casbin</text>
<path d="M540,241.03L540,252.81L560,252.81L560,241.03Z" style="fill:#7AC36A" />
<text x="500.33" y="-241.25" transform="scale(1, -1)"
	style="font-family:Times;font-weight:normal;font-style:normal;font-size:12px">FastAC</text>
<path d="M540,229.25L540,241.03L560,241.03L560,229.25Z" style="fill:#5A9BD4" />
<text x="469.67" y="-229.47" transform="scale(1, -1)"
	style="font-family:Times;font-weight:normal;font-style:normal;font-size:12px">FastAC-index</text>
</g>
</svg>
