<?xml version="1.0"?>
<!-- Generated by SVGo and Plotinum VG -->
<svg width="470pt" height="235pt" viewBox="0 0 470 235"
	xmlns="http://www.w3.org/2000/svg"
	xmlns:xlink="http://www.w3.org/1999/xlink">
<g transform="scale(1, -1) translate(0, -235)">
<path d="M0,0L470,0L470,235L0,235Z" style="fill:#FFFFFF" />
<text x="197.34" y="-223.45" transform="scale(1, -1)"
	style="font-family:Times;font-weight:normal;font-style:normal;font-size:12px">Add Rule Alloc</text>
<text x="270.62" y="-3.8613" transform="scale(1, -1)"
	style="font-family:Times;font-weight:normal;font-style:normal;font-size:12px">size</text>
<text x="81.666" y="-15.602" transform="scale(1, -1)"
	style="font-family:Times;font-weight:normal;font-style:normal;font-size:10px">Large(10000)</text>
<text x="249.68" y="-15.602" transform="scale(1, -1)"
	style="font-family:Times;font-weight:normal;font-style:normal;font-size:10px">Medium(1000)</text>
<text x="431.67" y="-15.602" transform="scale(1, -1)"
	style="font-family:Times;font-weight:normal;font-style:normal;font-size:10px">Empty(0)</text>
<g transform="rotate(90)">
<text x="103.25" y="11.555" transform="scale(1, -1)"
	style="font-family:Times;font-weight:normal;font-style:normal;font-size:12px">allocs/op</text>
</g>
<text x="20.416" y="-25.509" transform="scale(1, -1)"
	style="font-family:Times;font-weight:normal;font-style:normal;font-size:10px">0</text>
<text x="15.416" y="-84.682" transform="scale(1, -1)"
	style="font-family:Times;font-weight:normal;font-style:normal;font-size:10px">10</text>
<text x="15.416" y="-143.85" transform="scale(1, -1)"
	style="font-family:Times;font-weight:normal;font-style:normal;font-size:10px">20</text>
<text x="15.416" y="-203.03" transform="scale(1, -1)"
	style="font-family:Times;font-weight:normal;font-style:normal;font-size:10px">30</text>
<path d="M27.916,30.23L35.916,30.23" style="fill:none;stroke:#000000;stroke-width:0.5" />
<path d="M27.916,89.403L35.916,89.403" style="fill:none;stroke:#000000;stroke-width:0.5" />
<path d="M27.916,148.58L35.916,148.58" style="fill:none;stroke:#000000;stroke-width:0.5" />
<path d="M27.916,207.75L35.916,207.75" style="fill:none;stroke:#000000;stroke-width:0.5" />
<path d="M31.916,42.065L35.916,42.065" style="fill:none;stroke:#000000;stroke-width:0.5" />
<path d="M31.916,53.9L35.916,53.9" style="fill:none;stroke:#000000;stroke-width:0.5" />
<path d="M31.916,65.734L35.916,65.734" style="fill:none;stroke:#000000;stroke-width:0.5" />
<path d="M31.916,77.569L35.916,77.569" style="fill:none;stroke:#000000;stroke-width:0.5" />
<path d="M31.916,101.24L35.916,101.24" style="fill:none;stroke:#000000;stroke-width:0.5" />
<path d="M31.916,113.07L35.916,113.07" style="fill:none;stroke:#000000;stroke-width:0.5" />
<path d="M31.916,124.91L35.916,124.91" style="fill:none;stroke:#000000;stroke-width:0.5" />
<path d="M31.916,136.74L35.916,136.74" style="fill:none;stroke:#000000;stroke-width:0.5" />
<path d="M31.916,160.41L35.916,160.41" style="fill:none;stroke:#000000;stroke-width:0.5" />
<path d="M31.916,172.25L35.916,172.25" style="fill:none;stroke:#000000;stroke-width:0.5" />
<path d="M31.916,184.08L35.916,184.08" style="fill:none;stroke:#000000;stroke-width:0.5" />
<path d="M31.916,195.91L35.916,195.91" style="fill:none;stroke:#000000;stroke-width:0.5" />
<path d="M31.916,219.58L35.916,219.58" style="fill:none;stroke:#000000;stroke-width:0.5" />
<path d="M35.916,30.23L35.916,219.58" style="fill:none;stroke:#000000;stroke-width:0.5" />
<path d="M64.063,30.23L64.063,107.16L94.063,107.16L94.063,30.23Z" style="fill:#F15A60" />
<path d="M234.95,30.23L234.95,107.16L264.95,107.16L264.95,30.23Z" style="fill:#F15A60" />
<path d="M405.84,30.23L405.84,107.16L435.84,107.16L435.84,30.23Z" style="fill:#F15A60" />
<path d="M94.063,30.23L94.063,219.58L124.06,219.58L124.06,30.23Z" style="fill:#7AC36A" />
<path d="M264.95,30.23L264.95,219.58L294.95,219.58L294.95,30.23Z" style="fill:#7AC36A" />
<path d="M435.84,30.23L435.84,219.58L465.84,219.58L465.84,30.23Z" style="fill:#7AC36A" />
<path d="M450,207.81L450,219.58L470,219.58L470,207.81Z" style="fill:#F15A60" />
<text x="413.67" y="-208.03" transform="scale(1, -1)"
	style="font-family:Times;font-weight:normal;font-style:normal;font-size:12px">Casbin</text>
<path d="M450,196.03L450,207.81L470,207.81L470,196.03Z" style="fill:#7AC36A" />
<text x="410.33" y="-196.25" transform="scale(1, -1)"
	style="font-family:Times;font-weight:normal;font-style:normal;font-size:12px">FastAC</text>
</g>
</svg>
