<?xml version="1.0"?>
<!-- Generated by SVGo and Plotinum VG -->
<svg width="350pt" height="175pt" viewBox="0 0 350 175"
	xmlns="http://www.w3.org/2000/svg"
	xmlns:xlink="http://www.w3.org/1999/xlink">
<g transform="scale(1, -1) translate(0, -175)">
<path d="M0,0L350,0L350,175L0,175Z" style="fill:#FFFFFF" />
<text x="129.17" y="-163.45" transform="scale(1, -1)"
	style="font-family:Times;font-weight:normal;font-style:normal;font-size:12px">Matching Function</text>
<text x="198.67" y="-3.8613" transform="scale(1, -1)"
	style="font-family:Times;font-weight:normal;font-style:normal;font-size:12px">name</text>
<text x="190" y="-15.602" transform="scale(1, -1)"
	style="font-family:Times;font-weight:normal;font-style:normal;font-size:10px">PathMatch</text>
<g transform="rotate(90)">
<text x="81.905" y="11.555" transform="scale(1, -1)"
	style="font-family:Times;font-weight:normal;font-style:normal;font-size:12px">ns/op</text>
</g>
<text x="35.416" y="-25.509" transform="scale(1, -1)"
	style="font-family:Times;font-weight:normal;font-style:normal;font-size:10px">0</text>
<text x="20.416" y="-86.803" transform="scale(1, -1)"
	style="font-family:Times;font-weight:normal;font-style:normal;font-size:10px">8000</text>
<text x="15.416" y="-148.1" transform="scale(1, -1)"
	style="font-family:Times;font-weight:normal;font-style:normal;font-size:10px">16000</text>
<path d="M42.916,30.23L50.916,30.23" style="fill:none;stroke:#000000;stroke-width:0.5" />
<path d="M42.916,91.525L50.916,91.525" style="fill:none;stroke:#000000;stroke-width:0.5" />
<path d="M42.916,152.82L50.916,152.82" style="fill:none;stroke:#000000;stroke-width:0.5" />
<path d="M46.916,60.878L50.916,60.878" style="fill:none;stroke:#000000;stroke-width:0.5" />
<path d="M46.916,122.17L50.916,122.17" style="fill:none;stroke:#000000;stroke-width:0.5" />
<path d="M50.916,30.23L50.916,159.58" style="fill:none;stroke:#000000;stroke-width:0.5" />
<path d="M166.66,30.23L166.66,30.924L196.66,30.924L196.66,30.23Z" style="fill:#F15A60" />
<path d="M196.66,30.23L196.66,159.58L226.66,159.58L226.66,30.23Z" style="fill:#7AC36A" />
<path d="M330,147.81L330,159.58L350,159.58L350,147.81Z" style="fill:#F15A60" />
<text x="290.33" y="-148.03" transform="scale(1, -1)"
	style="font-family:Times;font-weight:normal;font-style:normal;font-size:12px">FastAC</text>
<path d="M330,136.03L330,147.81L350,147.81L350,136.03Z" style="fill:#7AC36A" />
<text x="293.67" y="-136.25" transform="scale(1, -1)"
	style="font-family:Times;font-weight:normal;font-style:normal;font-size:12px">Casbin</text>
</g>
</svg>
