<?xml version="1.0"?>
<!-- Generated by SVGo and Plotinum VG -->
<svg width="470pt" height="235pt" viewBox="0 0 470 235"
	xmlns="http://www.w3.org/2000/svg"
	xmlns:xlink="http://www.w3.org/1999/xlink">
<g transform="scale(1, -1) translate(0, -235)">
<path d="M0,0L470,0L470,235L0,235Z" style="fill:#FFFFFF" />
<text x="174.51" y="-223.45" transform="scale(1, -1)"
	style="font-family:Times;font-weight:normal;font-style:normal;font-size:12px">RBAC-Benchmark Alloc</text>
<text x="276.45" y="-3.8613" transform="scale(1, -1)"
	style="font-family:Times;font-weight:normal;font-style:normal;font-size:12px">size</text>
<text x="96.666" y="-15.602" transform="scale(1, -1)"
	style="font-family:Times;font-weight:normal;font-style:normal;font-size:10px">Large(100000)</text>
<text x="253.01" y="-15.602" transform="scale(1, -1)"
	style="font-family:Times;font-weight:normal;font-style:normal;font-size:10px">Medium(10000)</text>
<text x="420" y="-15.602" transform="scale(1, -1)"
	style="font-family:Times;font-weight:normal;font-style:normal;font-size:10px">Small(1000)</text>
<g transform="rotate(90)">
<text x="101.23" y="11.555" transform="scale(1, -1)"
	style="font-family:Times;font-weight:normal;font-style:normal;font-size:12px">allocs/op</text>
</g>
<text x="35.416" y="-25.509" transform="scale(1, -1)"
	style="font-family:Times;font-weight:normal;font-style:normal;font-size:10px">0</text>
<text x="15.416" y="-86.991" transform="scale(1, -1)"
	style="font-family:Times;font-weight:normal;font-style:normal;font-size:10px">10000</text>
<text x="15.416" y="-148.47" transform="scale(1, -1)"
	style="font-family:Times;font-weight:normal;font-style:normal;font-size:10px">20000</text>
<text x="15.416" y="-209.96" transform="scale(1, -1)"
	style="font-family:Times;font-weight:normal;font-style:normal;font-size:10px">30000</text>
<path d="M42.916,30.23L50.916,30.23" style="fill:none;stroke:#000000;stroke-width:0.5" />
<path d="M42.916,91.713L50.916,91.713" style="fill:none;stroke:#000000;stroke-width:0.5" />
<path d="M42.916,153.19L50.916,153.19" style="fill:none;stroke:#000000;stroke-width:0.5" />
<path d="M42.916,214.68L50.916,214.68" style="fill:none;stroke:#000000;stroke-width:0.5" />
<path d="M46.916,42.527L50.916,42.527" style="fill:none;stroke:#000000;stroke-width:0.5" />
<path d="M46.916,54.823L50.916,54.823" style="fill:none;stroke:#000000;stroke-width:0.5" />
<path d="M46.916,67.12L50.916,67.12" style="fill:none;stroke:#000000;stroke-width:0.5" />
<path d="M46.916,79.416L50.916,79.416" style="fill:none;stroke:#000000;stroke-width:0.5" />
<path d="M46.916,104.01L50.916,104.01" style="fill:none;stroke:#000000;stroke-width:0.5" />
<path d="M46.916,116.31L50.916,116.31" style="fill:none;stroke:#000000;stroke-width:0.5" />
<path d="M46.916,128.6L50.916,128.6" style="fill:none;stroke:#000000;stroke-width:0.5" />
<path d="M46.916,140.9L50.916,140.9" style="fill:none;stroke:#000000;stroke-width:0.5" />
<path d="M46.916,165.49L50.916,165.49" style="fill:none;stroke:#000000;stroke-width:0.5" />
<path d="M46.916,177.79L50.916,177.79" style="fill:none;stroke:#000000;stroke-width:0.5" />
<path d="M46.916,190.08L50.916,190.08" style="fill:none;stroke:#000000;stroke-width:0.5" />
<path d="M46.916,202.38L50.916,202.38" style="fill:none;stroke:#000000;stroke-width:0.5" />
<path d="M50.916,30.23L50.916,215.55" style="fill:none;stroke:#000000;stroke-width:0.5" />
<path d="M81.563,30.23L81.563,215.55L111.56,215.55L111.56,30.23Z" style="fill:#F15A60" />
<path d="M240.78,30.23L240.78,49.548L270.78,49.548L270.78,30.23Z" style="fill:#F15A60" />
<path d="M400,30.23L400,32.948L430,32.948L430,30.23Z" style="fill:#F15A60" />
<path d="M111.56,30.23L111.56,43.406L141.56,43.406L141.56,30.23Z" style="fill:#7AC36A" />
<path d="M270.78,30.23L270.78,32.339L300.78,32.339L300.78,30.23Z" style="fill:#7AC36A" />
<path d="M430,30.23L430,31.233L460,31.233L460,30.23Z" style="fill:#7AC36A" />
<path d="M450,207.81L450,219.58L470,219.58L470,207.81Z" style="fill:#F15A60" />
<text x="413.67" y="-208.03" transform="scale(1, -1)"
	style="font-family:Times;font-weight:normal;font-style:normal;font-size:12px">Casbin</text>
<path d="M450,196.03L450,207.81L470,207.81L470,196.03Z" style="fill:#7AC36A" />
<text x="410.33" y="-196.25" transform="scale(1, -1)"
	style="font-family:Times;font-weight:normal;font-style:normal;font-size:12px">FastAC</text>
</g>
</svg>
