<?xml version="1.0"?>
<!-- Generated by SVGo and Plotinum VG -->
<svg width="560pt" height="280pt" viewBox="0 0 560 280"
	xmlns="http://www.w3.org/2000/svg"
	xmlns:xlink="http://www.w3.org/1999/xlink">
<g transform="scale(1, -1) translate(0, -280)">
<path d="M0,0L560,0L560,280L0,280Z" style="fill:#FFFFFF" />
<text x="219.51" y="-268.45" transform="scale(1, -1)"
	style="font-family:Times;font-weight:normal;font-style:normal;font-size:12px">RBAC-Benchmark Alloc</text>
<text x="311.45" y="-3.8613" transform="scale(1, -1)"
	style="font-family:Times;font-weight:normal;font-style:normal;font-size:12px">size</text>
<text x="96.666" y="-15.602" transform="scale(1, -1)"
	style="font-family:Times;font-weight:normal;font-style:normal;font-size:10px">Large(100000)</text>
<text x="288.01" y="-15.602" transform="scale(1, -1)"
	style="font-family:Times;font-weight:normal;font-style:normal;font-size:10px">Medium(10000)</text>
<text x="490" y="-15.602" transform="scale(1, -1)"
	style="font-family:Times;font-weight:normal;font-style:normal;font-size:10px">Small(1000)</text>
<g transform="rotate(90)">
<text x="123.83" y="11.555" transform="scale(1, -1)"
	style="font-family:Times;font-weight:normal;font-style:normal;font-size:12px">allocs/op</text>
</g>
<text x="35.416" y="-25.509" transform="scale(1, -1)"
	style="font-family:Times;font-weight:normal;font-style:normal;font-size:10px">0</text>
<text x="15.416" y="-101.99" transform="scale(1, -1)"
	style="font-family:Times;font-weight:normal;font-style:normal;font-size:10px">10000</text>
<text x="15.416" y="-178.47" transform="scale(1, -1)"
	style="font-family:Times;font-weight:normal;font-style:normal;font-size:10px">20000</text>
<text x="15.416" y="-254.96" transform="scale(1, -1)"
	style="font-family:Times;font-weight:normal;font-style:normal;font-size:10px">30000</text>
<path d="M42.916,30.23L50.916,30.23" style="fill:none;stroke:#000000;stroke-width:0.5" />
<path d="M42.916,106.71L50.916,106.71" style="fill:none;stroke:#000000;stroke-width:0.5" />
<path d="M42.916,183.19L50.916,183.19" style="fill:none;stroke:#000000;stroke-width:0.5" />
<path d="M42.916,259.68L50.916,259.68" style="fill:none;stroke:#000000;stroke-width:0.5" />
<path d="M46.916,45.527L50.916,45.527" style="fill:none;stroke:#000000;stroke-width:0.5" />
<path d="M46.916,60.823L50.916,60.823" style="fill:none;stroke:#000000;stroke-width:0.5" />
<path d="M46.916,76.12L50.916,76.12" style="fill:none;stroke:#000000;stroke-width:0.5" />
<path d="M46.916,91.416L50.916,91.416" style="fill:none;stroke:#000000;stroke-width:0.5" />
<path d="M46.916,122.01L50.916,122.01" style="fill:none;stroke:#000000;stroke-width:0.5" />
<path d="M46.916,137.31L50.916,137.31" style="fill:none;stroke:#000000;stroke-width:0.5" />
<path d="M46.916,152.6L50.916,152.6" style="fill:none;stroke:#000000;stroke-width:0.5" />
<path d="M46.916,167.9L50.916,167.9" style="fill:none;stroke:#000000;stroke-width:0.5" />
<path d="M46.916,198.49L50.916,198.49" style="fill:none;stroke:#000000;stroke-width:0.5" />
<path d="M46.916,213.79L50.916,213.79" style="fill:none;stroke:#000000;stroke-width:0.5" />
<path d="M46.916,229.08L50.916,229.08" style="fill:none;stroke:#000000;stroke-width:0.5" />
<path d="M46.916,244.38L50.916,244.38" style="fill:none;stroke:#000000;stroke-width:0.5" />
<path d="M50.916,30.23L50.916,260.76" style="fill:none;stroke:#000000;stroke-width:0.5" />
<path d="M81.563,30.23L81.563,260.76L111.56,260.76L111.56,30.23Z" style="fill:#F15A60" />
<path d="M275.78,30.23L275.78,54.261L305.78,54.261L305.78,30.23Z" style="fill:#F15A60" />
<path d="M470,30.23L470,33.611L500,33.611L500,30.23Z" style="fill:#F15A60" />
<path d="M111.56,30.23L111.56,184.23L141.56,184.23L141.56,30.23Z" style="fill:#7AC36A" />
<path d="M305.78,30.23L305.78,46.567L335.78,46.567L335.78,30.23Z" style="fill:#7AC36A" />
<path d="M500,30.23L500,32.8L530,32.8L530,30.23Z" style="fill:#7AC36A" />
<path d="M141.56,30.23L141.56,46.605L171.56,46.605L171.56,30.23Z" style="fill:#5A9BD4" />
<path d="M335.78,30.23L335.78,32.839L365.78,32.839L365.78,30.23Z" style="fill:#5A9BD4" />
<path d="M530,30.23L530,31.462L560,31.462L560,30.23Z" style="fill:#5A9BD4" />
<path d="M540,252.81L540,264.58L560,264.58L560,252.81Z" style="fill:#F15A60" />
<text x="503.67" y="-253.03" transform="scale(1, -1)"
	style="font-family:Times;font-weight:normal;font-style:normal;font-size:12px">Casbin</text>
<path d="M540,241.03L540,252.81L560,252.81L560,241.03Z" style="fill:#7AC36A" />
<text x="500.33" y="-241.25" transform="scale(1, -1)"
	style="font-family:Times;font-weight:normal;font-style:normal;font-size:12px">FastAC</text>
<path d="M540,229.25L540,241.03L560,241.03L560,229.25Z" style="fill:#5A9BD4" />
<text x="469.67" y="-229.47" transform="scale(1, -1)"
	style="font-family:Times;font-weight:normal;font-style:normal;font-size:12px">FastAC-index</text>
</g>
</svg>
