<?xml version="1.0"?>
<!-- Generated by SVGo and Plotinum VG -->
<svg width="530pt" height="265pt" viewBox="0 0 530 265"
	xmlns="http://www.w3.org/2000/svg"
	xmlns:xlink="http://www.w3.org/1999/xlink">
<g transform="scale(1, -1) translate(0, -265)">
<path d="M0,0L530,0L530,265L0,265Z" style="fill:#FFFFFF" />
<text x="228.17" y="-253.45" transform="scale(1, -1)"
	style="font-family:Times;font-weight:normal;font-style:normal;font-size:12px">Enforce RBAC</text>
<text x="265.13" y="-3.8613" transform="scale(1, -1)"
	style="font-family:Times;font-weight:normal;font-style:normal;font-size:12px">users_roles_objects</text>
<text x="96.744" y="-15.602" transform="scale(1, -1)"
	style="font-family:Times;font-weight:normal;font-style:normal;font-size:10px">10000_100_1000</text>
<text x="214.5" y="-15.602" transform="scale(1, -1)"
	style="font-family:Times;font-weight:normal;font-style:normal;font-size:10px">100000_100_1000</text>
<text x="337.25" y="-15.602" transform="scale(1, -1)"
	style="font-family:Times;font-weight:normal;font-style:normal;font-size:10px">10000_1000_100</text>
<text x="455" y="-15.602" transform="scale(1, -1)"
	style="font-family:Times;font-weight:normal;font-style:normal;font-size:10px">100000_1000_100</text>
<g transform="rotate(90)">
<text x="126.91" y="11.555" transform="scale(1, -1)"
	style="font-family:Times;font-weight:normal;font-style:normal;font-size:12px">ns/op</text>
</g>
<text x="35.494" y="-25.509" transform="scale(1, -1)"
	style="font-family:Times;font-weight:normal;font-style:normal;font-size:10px">0</text>
<text x="15.416" y="-120.47" transform="scale(1, -1)"
	style="font-family:Times;font-weight:normal;font-style:normal;font-size:10px">3e+07</text>
<text x="15.416" y="-215.44" transform="scale(1, -1)"
	style="font-family:Times;font-weight:normal;font-style:normal;font-size:10px">6e+07</text>
<path d="M42.994,30.23L50.994,30.23" style="fill:none;stroke:#000000;stroke-width:0.5" />
<path d="M42.994,125.19L50.994,125.19" style="fill:none;stroke:#000000;stroke-width:0.5" />
<path d="M42.994,220.16L50.994,220.16" style="fill:none;stroke:#000000;stroke-width:0.5" />
<path d="M46.994,61.885L50.994,61.885" style="fill:none;stroke:#000000;stroke-width:0.5" />
<path d="M46.994,93.539L50.994,93.539" style="fill:none;stroke:#000000;stroke-width:0.5" />
<path d="M46.994,156.85L50.994,156.85" style="fill:none;stroke:#000000;stroke-width:0.5" />
<path d="M46.994,188.5L50.994,188.5" style="fill:none;stroke:#000000;stroke-width:0.5" />
<path d="M50.994,30.23L50.994,249.58" style="fill:none;stroke:#000000;stroke-width:0.5" />
<path d="M86.744,30.23L86.744,242.54L116.74,242.54L116.74,30.23Z" style="fill:#F15A60" />
<path d="M207,30.23L207,214.98L237,214.98L237,30.23Z" style="fill:#F15A60" />
<path d="M327.25,30.23L327.25,249.58L357.25,249.58L357.25,30.23Z" style="fill:#F15A60" />
<path d="M447.5,30.23L447.5,220.29L477.5,220.29L477.5,30.23Z" style="fill:#F15A60" />
<path d="M116.74,30.23L116.74,31.104L146.74,31.104L146.74,30.23Z" style="fill:#7AC36A" />
<path d="M237,30.23L237,31.09L267,31.09L267,30.23Z" style="fill:#7AC36A" />
<path d="M357.25,30.23L357.25,32.057L387.25,32.057L387.25,30.23Z" style="fill:#7AC36A" />
<path d="M477.5,30.23L477.5,32.11L507.5,32.11L507.5,30.23Z" style="fill:#7AC36A" />
<path d="M510,237.81L510,249.58L530,249.58L530,237.81Z" style="fill:#F15A60" />
<text x="473.67" y="-238.03" transform="scale(1, -1)"
	style="font-family:Times;font-weight:normal;font-style:normal;font-size:12px">Casbin</text>
<path d="M510,226.03L510,237.81L530,237.81L530,226.03Z" style="fill:#7AC36A" />
<text x="470.33" y="-226.25" transform="scale(1, -1)"
	style="font-family:Times;font-weight:normal;font-style:normal;font-size:12px">FastAC</text>
</g>
</svg>
