<?xml version="1.0"?>
<!-- Generated by SVGo and Plotinum VG -->
<svg width="530pt" height="265pt" viewBox="0 0 530 265"
	xmlns="http://www.w3.org/2000/svg"
	xmlns:xlink="http://www.w3.org/1999/xlink">
<g transform="scale(1, -1) translate(0, -265)">
<path d="M0,0L530,0L530,265L0,265Z" style="fill:#FFFFFF" />
<text x="213.67" y="-253.45" transform="scale(1, -1)"
	style="font-family:Times;font-weight:normal;font-style:normal;font-size:12px">Enforce RBAC Alloc</text>
<text x="267.59" y="-3.8613" transform="scale(1, -1)"
	style="font-family:Times;font-weight:normal;font-style:normal;font-size:12px">users_roles_objects</text>
<text x="101.67" y="-15.602" transform="scale(1, -1)"
	style="font-family:Times;font-weight:normal;font-style:normal;font-size:10px">10000_100_1000</text>
<text x="217.78" y="-15.602" transform="scale(1, -1)"
	style="font-family:Times;font-weight:normal;font-style:normal;font-size:10px">100000_100_1000</text>
<text x="338.89" y="-15.602" transform="scale(1, -1)"
	style="font-family:Times;font-weight:normal;font-style:normal;font-size:10px">10000_1000_100</text>
<text x="455" y="-15.602" transform="scale(1, -1)"
	style="font-family:Times;font-weight:normal;font-style:normal;font-size:10px">100000_1000_100</text>
<g transform="rotate(90)">
<text x="115.99" y="11.555" transform="scale(1, -1)"
	style="font-family:Times;font-weight:normal;font-style:normal;font-size:12px">allocs/op</text>
</g>
<text x="40.416" y="-25.509" transform="scale(1, -1)"
	style="font-family:Times;font-weight:normal;font-style:normal;font-size:10px">0</text>
<text x="15.416" y="-132.73" transform="scale(1, -1)"
	style="font-family:Times;font-weight:normal;font-style:normal;font-size:10px">300000</text>
<text x="15.416" y="-239.96" transform="scale(1, -1)"
	style="font-family:Times;font-weight:normal;font-style:normal;font-size:10px">600000</text>
<path d="M47.916,30.23L55.916,30.23" style="fill:none;stroke:#000000;stroke-width:0.5" />
<path d="M47.916,137.45L55.916,137.45" style="fill:none;stroke:#000000;stroke-width:0.5" />
<path d="M47.916,244.68L55.916,244.68" style="fill:none;stroke:#000000;stroke-width:0.5" />
<path d="M51.916,65.972L55.916,65.972" style="fill:none;stroke:#000000;stroke-width:0.5" />
<path d="M51.916,101.71L55.916,101.71" style="fill:none;stroke:#000000;stroke-width:0.5" />
<path d="M51.916,173.19L55.916,173.19" style="fill:none;stroke:#000000;stroke-width:0.5" />
<path d="M51.916,208.94L55.916,208.94" style="fill:none;stroke:#000000;stroke-width:0.5" />
<path d="M55.916,30.23L55.916,245.07" style="fill:none;stroke:#000000;stroke-width:0.5" />
<path d="M91.666,30.23L91.666,245.07L121.67,245.07L121.67,30.23Z" style="fill:#F15A60" />
<path d="M210.28,30.23L210.28,245.07L240.28,245.07L240.28,30.23Z" style="fill:#F15A60" />
<path d="M328.89,30.23L328.89,244.76L358.89,244.76L358.89,30.23Z" style="fill:#F15A60" />
<path d="M447.5,30.23L447.5,244.76L477.5,244.76L477.5,30.23Z" style="fill:#F15A60" />
<path d="M121.67,30.23L121.67,31.135L151.67,31.135L151.67,30.23Z" style="fill:#7AC36A" />
<path d="M240.28,30.23L240.28,31.135L270.28,31.135L270.28,30.23Z" style="fill:#7AC36A" />
<path d="M358.89,30.23L358.89,31.778L388.89,31.778L388.89,30.23Z" style="fill:#7AC36A" />
<path d="M477.5,30.23L477.5,31.778L507.5,31.778L507.5,30.23Z" style="fill:#7AC36A" />
<path d="M510,237.81L510,249.58L530,249.58L530,237.81Z" style="fill:#F15A60" />
<text x="473.67" y="-238.03" transform="scale(1, -1)"
	style="font-family:Times;font-weight:normal;font-style:normal;font-size:12px">Casbin</text>
<path d="M510,226.03L510,237.81L530,237.81L530,226.03Z" style="fill:#7AC36A" />
<text x="470.33" y="-226.25" transform="scale(1, -1)"
	style="font-family:Times;font-weight:normal;font-style:normal;font-size:12px">FastAC</text>
</g>
</svg>
