<?xml version="1.0"?>
<!-- Generated by SVGo and Plotinum VG -->
<svg width="560pt" height="280pt" viewBox="0 0 560 280"
	xmlns="http://www.w3.org/2000/svg"
	xmlns:xlink="http://www.w3.org/1999/xlink">
<g transform="scale(1, -1) translate(0, -280)">
<path d="M0,0L560,0L560,280L0,280Z" style="fill:#FFFFFF" />
<text x="236" y="-268.45" transform="scale(1, -1)"
	style="font-family:Times;font-weight:normal;font-style:normal;font-size:12px">BenchmarkRBAC</text>
<text x="307.29" y="-3.8613" transform="scale(1, -1)"
	style="font-family:Times;font-weight:normal;font-style:normal;font-size:12px">size</text>
<text x="106.67" y="-15.602" transform="scale(1, -1)"
	style="font-family:Times;font-weight:normal;font-style:normal;font-size:10px">Large</text>
<text x="299.67" y="-15.602" transform="scale(1, -1)"
	style="font-family:Times;font-weight:normal;font-style:normal;font-size:10px">Medium</text>
<text x="503.33" y="-15.602" transform="scale(1, -1)"
	style="font-family:Times;font-weight:normal;font-style:normal;font-size:10px">Small</text>
<g transform="rotate(90)">
<text x="134.41" y="11.555" transform="scale(1, -1)"
	style="font-family:Times;font-weight:normal;font-style:normal;font-size:12px">ns/op</text>
</g>
<text x="45.416" y="-25.509" transform="scale(1, -1)"
	style="font-family:Times;font-weight:normal;font-style:normal;font-size:10px">0</text>
<text x="15.416" y="-129.04" transform="scale(1, -1)"
	style="font-family:Times;font-weight:normal;font-style:normal;font-size:10px">2000000</text>
<text x="15.416" y="-232.57" transform="scale(1, -1)"
	style="font-family:Times;font-weight:normal;font-style:normal;font-size:10px">4000000</text>
<path d="M52.916,30.23L60.916,30.23" style="fill:none;stroke:#000000;stroke-width:0.5" />
<path d="M52.916,133.76L60.916,133.76" style="fill:none;stroke:#000000;stroke-width:0.5" />
<path d="M52.916,237.29L60.916,237.29" style="fill:none;stroke:#000000;stroke-width:0.5" />
<path d="M56.916,81.996L60.916,81.996" style="fill:none;stroke:#000000;stroke-width:0.5" />
<path d="M56.916,185.53L60.916,185.53" style="fill:none;stroke:#000000;stroke-width:0.5" />
<path d="M60.916,30.23L60.916,264.58" style="fill:none;stroke:#000000;stroke-width:0.5" />
<path d="M73.233,30.23L73.233,264.58L103.23,264.58L103.23,30.23Z" style="fill:#F15A60" />
<path d="M271.62,30.23L271.62,70.004L301.62,70.004L301.62,30.23Z" style="fill:#F15A60" />
<path d="M470,30.23L470,36.104L500,36.104L500,30.23Z" style="fill:#F15A60" />
<path d="M103.23,30.23L103.23,143.95L133.23,143.95L133.23,30.23Z" style="fill:#7AC36A" />
<path d="M301.62,30.23L301.62,47.504L331.62,47.504L331.62,30.23Z" style="fill:#7AC36A" />
<path d="M500,30.23L500,33.524L530,33.524L530,30.23Z" style="fill:#7AC36A" />
<path d="M133.23,30.23L133.23,43.467L163.23,43.467L163.23,30.23Z" style="fill:#5A9BD4" />
<path d="M331.62,30.23L331.62,33.372L361.62,33.372L361.62,30.23Z" style="fill:#5A9BD4" />
<path d="M530,30.23L530,31.512L560,31.512L560,30.23Z" style="fill:#5A9BD4" />
<path d="M540,252.81L540,264.58L560,264.58L560,252.81Z" style="fill:#F15A60" />
<text x="506.34" y="-253.03" transform="scale(1, -1)"
	style="font-family:Times;font-weight:normal;font-style:normal;font-size:12px">casbin</text>
<path d="M540,241.03L540,252.81L560,252.81L560,241.03Z" style="fill:#7AC36A" />
<text x="509.02" y="-241.25" transform="scale(1, -1)"
	style="font-family:Times;font-weight:normal;font-style:normal;font-size:12px">fastac</text>
<path d="M540,229.25L540,241.03L560,241.03L560,229.25Z" style="fill:#5A9BD4" />
<text x="478.37" y="-229.47" transform="scale(1, -1)"
	style="font-family:Times;font-weight:normal;font-style:normal;font-size:12px">fastac-index</text>
</g>
</svg>
