<?xml version="1.0"?>
<!-- Generated by SVGo and Plotinum VG -->
<svg width="560pt" height="280pt" viewBox="0 0 560 280"
	xmlns="http://www.w3.org/2000/svg"
	xmlns:xlink="http://www.w3.org/1999/xlink">
<g transform="scale(1, -1) translate(0, -280)">
<path d="M0,0L560,0L560,280L0,280Z" style="fill:#FFFFFF" />
<text x="234.01" y="-268.45" transform="scale(1, -1)"
	style="font-family:Times;font-weight:normal;font-style:normal;font-size:12px">RBAC-Benchmark</text>
<text x="316.45" y="-3.8613" transform="scale(1, -1)"
	style="font-family:Times;font-weight:normal;font-style:normal;font-size:12px">size</text>
<text x="106.67" y="-15.602" transform="scale(1, -1)"
	style="font-family:Times;font-weight:normal;font-style:normal;font-size:10px">Large(100000)</text>
<text x="293.01" y="-15.602" transform="scale(1, -1)"
	style="font-family:Times;font-weight:normal;font-style:normal;font-size:10px">Medium(10000)</text>
<text x="490" y="-15.602" transform="scale(1, -1)"
	style="font-family:Times;font-weight:normal;font-style:normal;font-size:10px">Small(1000)</text>
<g transform="rotate(90)">
<text x="133.5" y="11.555" transform="scale(1, -1)"
	style="font-family:Times;font-weight:normal;font-style:normal;font-size:12px">ns/op</text>
</g>
<text x="45.416" y="-25.509" transform="scale(1, -1)"
	style="font-family:Times;font-weight:normal;font-style:normal;font-size:10px">0</text>
<text x="15.416" y="-140.23" transform="scale(1, -1)"
	style="font-family:Times;font-weight:normal;font-style:normal;font-size:10px">2000000</text>
<text x="15.416" y="-254.96" transform="scale(1, -1)"
	style="font-family:Times;font-weight:normal;font-style:normal;font-size:10px">4000000</text>
<path d="M52.916,30.23L60.916,30.23" style="fill:none;stroke:#000000;stroke-width:0.5" />
<path d="M52.916,144.95L60.916,144.95" style="fill:none;stroke:#000000;stroke-width:0.5" />
<path d="M52.916,259.68L60.916,259.68" style="fill:none;stroke:#000000;stroke-width:0.5" />
<path d="M56.916,87.592L60.916,87.592" style="fill:none;stroke:#000000;stroke-width:0.5" />
<path d="M56.916,202.32L60.916,202.32" style="fill:none;stroke:#000000;stroke-width:0.5" />
<path d="M60.916,30.23L60.916,262.76" style="fill:none;stroke:#000000;stroke-width:0.5" />
<path d="M91.563,30.23L91.563,262.76L121.56,262.76L121.56,30.23Z" style="fill:#F15A60" />
<path d="M280.78,30.23L280.78,70.803L310.78,70.803L310.78,30.23Z" style="fill:#F15A60" />
<path d="M470,30.23L470,36.073L500,36.073L500,30.23Z" style="fill:#F15A60" />
<path d="M121.56,30.23L121.56,163.81L151.56,163.81L151.56,30.23Z" style="fill:#7AC36A" />
<path d="M310.78,30.23L310.78,51.373L340.78,51.373L340.78,30.23Z" style="fill:#7AC36A" />
<path d="M500,30.23L500,34.36L530,34.36L530,30.23Z" style="fill:#7AC36A" />
<path d="M151.56,30.23L151.56,44.253L181.56,44.253L181.56,30.23Z" style="fill:#5A9BD4" />
<path d="M340.78,30.23L340.78,34.16L370.78,34.16L370.78,30.23Z" style="fill:#5A9BD4" />
<path d="M530,30.23L530,32.1L560,32.1L560,30.23Z" style="fill:#5A9BD4" />
<path d="M540,252.81L540,264.58L560,264.58L560,252.81Z" style="fill:#F15A60" />
<text x="503.67" y="-253.03" transform="scale(1, -1)"
	style="font-family:Times;font-weight:normal;font-style:normal;font-size:12px">Casbin</text>
<path d="M540,241.03L540,252.81L560,252.81L560,241.03Z" style="fill:#7AC36A" />
<text x="500.33" y="-241.25" transform="scale(1, -1)"
	style="font-family:Times;font-weight:normal;font-style:normal;font-size:12px">FastAC</text>
<path d="M540,229.25L540,241.03L560,241.03L560,229.25Z" style="fill:#5A9BD4" />
<text x="469.67" y="-229.47" transform="scale(1, -1)"
	style="font-family:Times;font-weight:normal;font-style:normal;font-size:12px">FastAC-index</text>
</g>
</svg>
