<?xml version="1.0"?>
<!-- Generated by SVGo and Plotinum VG -->
<svg width="470pt" height="235pt" viewBox="0 0 470 235"
	xmlns="http://www.w3.org/2000/svg"
	xmlns:xlink="http://www.w3.org/1999/xlink">
<g transform="scale(1, -1) translate(0, -235)">
<path d="M0,0L470,0L470,235L0,235Z" style="fill:#FFFFFF" />
<text x="187.67" y="-223.45" transform="scale(1, -1)"
	style="font-family:Times;font-weight:normal;font-style:normal;font-size:12px">Remove Rule Alloc</text>
<text x="269.37" y="-3.8613" transform="scale(1, -1)"
	style="font-family:Times;font-weight:normal;font-style:normal;font-size:12px">size</text>
<text x="81.666" y="-15.602" transform="scale(1, -1)"
	style="font-family:Times;font-weight:normal;font-style:normal;font-size:10px">Large(1000)</text>
<text x="250.93" y="-15.602" transform="scale(1, -1)"
	style="font-family:Times;font-weight:normal;font-style:normal;font-size:10px">Medium(100)</text>
<text x="431.67" y="-15.602" transform="scale(1, -1)"
	style="font-family:Times;font-weight:normal;font-style:normal;font-size:10px">Empty(0)</text>
<g transform="rotate(90)">
<text x="103.25" y="11.555" transform="scale(1, -1)"
	style="font-family:Times;font-weight:normal;font-style:normal;font-size:12px">allocs/op</text>
</g>
<text x="20.416" y="-25.509" transform="scale(1, -1)"
	style="font-family:Times;font-weight:normal;font-style:normal;font-size:10px">0</text>
<text x="20.416" y="-111.58" transform="scale(1, -1)"
	style="font-family:Times;font-weight:normal;font-style:normal;font-size:10px">5</text>
<text x="15.416" y="-197.65" transform="scale(1, -1)"
	style="font-family:Times;font-weight:normal;font-style:normal;font-size:10px">10</text>
<path d="M27.916,30.23L35.916,30.23" style="fill:none;stroke:#000000;stroke-width:0.5" />
<path d="M27.916,116.3L35.916,116.3" style="fill:none;stroke:#000000;stroke-width:0.5" />
<path d="M27.916,202.37L35.916,202.37" style="fill:none;stroke:#000000;stroke-width:0.5" />
<path d="M31.916,47.444L35.916,47.444" style="fill:none;stroke:#000000;stroke-width:0.5" />
<path d="M31.916,64.658L35.916,64.658" style="fill:none;stroke:#000000;stroke-width:0.5" />
<path d="M31.916,81.872L35.916,81.872" style="fill:none;stroke:#000000;stroke-width:0.5" />
<path d="M31.916,99.086L35.916,99.086" style="fill:none;stroke:#000000;stroke-width:0.5" />
<path d="M31.916,133.51L35.916,133.51" style="fill:none;stroke:#000000;stroke-width:0.5" />
<path d="M31.916,150.73L35.916,150.73" style="fill:none;stroke:#000000;stroke-width:0.5" />
<path d="M31.916,167.94L35.916,167.94" style="fill:none;stroke:#000000;stroke-width:0.5" />
<path d="M31.916,185.16L35.916,185.16" style="fill:none;stroke:#000000;stroke-width:0.5" />
<path d="M31.916,219.58L35.916,219.58" style="fill:none;stroke:#000000;stroke-width:0.5" />
<path d="M35.916,30.23L35.916,219.58" style="fill:none;stroke:#000000;stroke-width:0.5" />
<path d="M61.563,30.23L61.563,219.58L91.563,219.58L91.563,30.23Z" style="fill:#F15A60" />
<path d="M233.7,30.23L233.7,219.58L263.7,219.58L263.7,30.23Z" style="fill:#F15A60" />
<path d="M405.84,30.23L405.84,219.58L435.84,219.58L435.84,30.23Z" style="fill:#F15A60" />
<path d="M91.563,30.23L91.563,202.37L121.56,202.37L121.56,30.23Z" style="fill:#7AC36A" />
<path d="M263.7,30.23L263.7,202.37L293.7,202.37L293.7,30.23Z" style="fill:#7AC36A" />
<path d="M435.84,30.23L435.84,202.37L465.84,202.37L465.84,30.23Z" style="fill:#7AC36A" />
<path d="M450,207.81L450,219.58L470,219.58L470,207.81Z" style="fill:#F15A60" />
<text x="413.67" y="-208.03" transform="scale(1, -1)"
	style="font-family:Times;font-weight:normal;font-style:normal;font-size:12px">Casbin</text>
<path d="M450,196.03L450,207.81L470,207.81L470,196.03Z" style="fill:#7AC36A" />
<text x="410.33" y="-196.25" transform="scale(1, -1)"
	style="font-family:Times;font-weight:normal;font-style:normal;font-size:12px">FastAC</text>
</g>
</svg>
