<?xml version="1.0"?>
<!-- Generated by SVGo and Plotinum VG -->
<svg width="470pt" height="235pt" viewBox="0 0 470 235"
	xmlns="http://www.w3.org/2000/svg"
	xmlns:xlink="http://www.w3.org/1999/xlink">
<g transform="scale(1, -1) translate(0, -235)">
<path d="M0,0L470,0L470,235L0,235Z" style="fill:#FFFFFF" />
<text x="202.17" y="-223.45" transform="scale(1, -1)"
	style="font-family:Times;font-weight:normal;font-style:normal;font-size:12px">Remove Rule</text>
<text x="274.37" y="-3.8613" transform="scale(1, -1)"
	style="font-family:Times;font-weight:normal;font-style:normal;font-size:12px">size</text>
<text x="91.666" y="-15.602" transform="scale(1, -1)"
	style="font-family:Times;font-weight:normal;font-style:normal;font-size:10px">Large(1000)</text>
<text x="255.93" y="-15.602" transform="scale(1, -1)"
	style="font-family:Times;font-weight:normal;font-style:normal;font-size:10px">Medium(100)</text>
<text x="431.67" y="-15.602" transform="scale(1, -1)"
	style="font-family:Times;font-weight:normal;font-style:normal;font-size:10px">Empty(0)</text>
<g transform="rotate(90)">
<text x="111.91" y="11.555" transform="scale(1, -1)"
	style="font-family:Times;font-weight:normal;font-style:normal;font-size:12px">ns/op</text>
</g>
<text x="30.416" y="-25.509" transform="scale(1, -1)"
	style="font-family:Times;font-weight:normal;font-style:normal;font-size:10px">0</text>
<text x="20.416" y="-79.112" transform="scale(1, -1)"
	style="font-family:Times;font-weight:normal;font-style:normal;font-size:10px">400</text>
<text x="20.416" y="-132.72" transform="scale(1, -1)"
	style="font-family:Times;font-weight:normal;font-style:normal;font-size:10px">800</text>
<text x="15.416" y="-186.32" transform="scale(1, -1)"
	style="font-family:Times;font-weight:normal;font-style:normal;font-size:10px">1200</text>
<path d="M37.916,30.23L45.916,30.23" style="fill:none;stroke:#000000;stroke-width:0.5" />
<path d="M37.916,83.834L45.916,83.834" style="fill:none;stroke:#000000;stroke-width:0.5" />
<path d="M37.916,137.44L45.916,137.44" style="fill:none;stroke:#000000;stroke-width:0.5" />
<path d="M37.916,191.04L45.916,191.04" style="fill:none;stroke:#000000;stroke-width:0.5" />
<path d="M41.916,43.631L45.916,43.631" style="fill:none;stroke:#000000;stroke-width:0.5" />
<path d="M41.916,57.032L45.916,57.032" style="fill:none;stroke:#000000;stroke-width:0.5" />
<path d="M41.916,70.433L45.916,70.433" style="fill:none;stroke:#000000;stroke-width:0.5" />
<path d="M41.916,97.235L45.916,97.235" style="fill:none;stroke:#000000;stroke-width:0.5" />
<path d="M41.916,110.64L45.916,110.64" style="fill:none;stroke:#000000;stroke-width:0.5" />
<path d="M41.916,124.04L45.916,124.04" style="fill:none;stroke:#000000;stroke-width:0.5" />
<path d="M41.916,150.84L45.916,150.84" style="fill:none;stroke:#000000;stroke-width:0.5" />
<path d="M41.916,164.24L45.916,164.24" style="fill:none;stroke:#000000;stroke-width:0.5" />
<path d="M41.916,177.64L45.916,177.64" style="fill:none;stroke:#000000;stroke-width:0.5" />
<path d="M41.916,204.44L45.916,204.44" style="fill:none;stroke:#000000;stroke-width:0.5" />
<path d="M41.916,217.84L45.916,217.84" style="fill:none;stroke:#000000;stroke-width:0.5" />
<path d="M45.916,30.23L45.916,219.58" style="fill:none;stroke:#000000;stroke-width:0.5" />
<path d="M71.563,30.23L71.563,219.58L101.56,219.58L101.56,30.23Z" style="fill:#F15A60" />
<path d="M238.7,30.23L238.7,204.17L268.7,204.17L268.7,30.23Z" style="fill:#F15A60" />
<path d="M405.84,30.23L405.84,191.31L435.84,191.31L435.84,30.23Z" style="fill:#F15A60" />
<path d="M101.56,30.23L101.56,180.99L131.56,180.99L131.56,30.23Z" style="fill:#7AC36A" />
<path d="M268.7,30.23L268.7,182.6L298.7,182.6L298.7,30.23Z" style="fill:#7AC36A" />
<path d="M435.84,30.23L435.84,178.58L465.84,178.58L465.84,30.23Z" style="fill:#7AC36A" />
<path d="M450,207.81L450,219.58L470,219.58L470,207.81Z" style="fill:#F15A60" />
<text x="413.67" y="-208.03" transform="scale(1, -1)"
	style="font-family:Times;font-weight:normal;font-style:normal;font-size:12px">Casbin</text>
<path d="M450,196.03L450,207.81L470,207.81L470,196.03Z" style="fill:#7AC36A" />
<text x="410.33" y="-196.25" transform="scale(1, -1)"
	style="font-family:Times;font-weight:normal;font-style:normal;font-size:12px">FastAC</text>
</g>
</svg>
