<?xml version="1.0"?>
<!-- Generated by SVGo and Plotinum VG -->
<svg width="560pt" height="280pt" viewBox="0 0 560 280"
	xmlns="http://www.w3.org/2000/svg"
	xmlns:xlink="http://www.w3.org/1999/xlink">
<g transform="scale(1, -1) translate(0, -280)">
<path d="M0,0L560,0L560,280L0,280Z" style="fill:#FFFFFF" />
<text x="217.01" y="-268.45" transform="scale(1, -1)"
	style="font-family:Times;font-weight:normal;font-style:normal;font-size:12px">BenchmarkRemovePolicy</text>
<text x="306.45" y="-3.8613" transform="scale(1, -1)"
	style="font-family:Times;font-weight:normal;font-style:normal;font-size:12px">size</text>
<text x="91.666" y="-15.602" transform="scale(1, -1)"
	style="font-family:Times;font-weight:normal;font-style:normal;font-size:10px">Large(1000)</text>
<text x="288.01" y="-15.602" transform="scale(1, -1)"
	style="font-family:Times;font-weight:normal;font-style:normal;font-size:10px">Medium(100)</text>
<text x="495.84" y="-15.602" transform="scale(1, -1)"
	style="font-family:Times;font-weight:normal;font-style:normal;font-size:10px">Empty(0)</text>
<g transform="rotate(90)">
<text x="134.41" y="11.555" transform="scale(1, -1)"
	style="font-family:Times;font-weight:normal;font-style:normal;font-size:12px">ns/op</text>
</g>
<text x="30.416" y="-25.509" transform="scale(1, -1)"
	style="font-family:Times;font-weight:normal;font-style:normal;font-size:10px">0</text>
<text x="20.416" y="-100.03" transform="scale(1, -1)"
	style="font-family:Times;font-weight:normal;font-style:normal;font-size:10px">400</text>
<text x="20.416" y="-174.54" transform="scale(1, -1)"
	style="font-family:Times;font-weight:normal;font-style:normal;font-size:10px">800</text>
<text x="15.416" y="-249.06" transform="scale(1, -1)"
	style="font-family:Times;font-weight:normal;font-style:normal;font-size:10px">1200</text>
<path d="M37.916,30.23L45.916,30.23" style="fill:none;stroke:#000000;stroke-width:0.5" />
<path d="M37.916,104.75L45.916,104.75" style="fill:none;stroke:#000000;stroke-width:0.5" />
<path d="M37.916,179.26L45.916,179.26" style="fill:none;stroke:#000000;stroke-width:0.5" />
<path d="M37.916,253.78L45.916,253.78" style="fill:none;stroke:#000000;stroke-width:0.5" />
<path d="M41.916,48.86L45.916,48.86" style="fill:none;stroke:#000000;stroke-width:0.5" />
<path d="M41.916,67.489L45.916,67.489" style="fill:none;stroke:#000000;stroke-width:0.5" />
<path d="M41.916,86.118L45.916,86.118" style="fill:none;stroke:#000000;stroke-width:0.5" />
<path d="M41.916,123.38L45.916,123.38" style="fill:none;stroke:#000000;stroke-width:0.5" />
<path d="M41.916,142L45.916,142" style="fill:none;stroke:#000000;stroke-width:0.5" />
<path d="M41.916,160.63L45.916,160.63" style="fill:none;stroke:#000000;stroke-width:0.5" />
<path d="M41.916,197.89L45.916,197.89" style="fill:none;stroke:#000000;stroke-width:0.5" />
<path d="M41.916,216.52L45.916,216.52" style="fill:none;stroke:#000000;stroke-width:0.5" />
<path d="M41.916,235.15L45.916,235.15" style="fill:none;stroke:#000000;stroke-width:0.5" />
<path d="M45.916,30.23L45.916,264.58" style="fill:none;stroke:#000000;stroke-width:0.5" />
<path d="M71.563,30.23L71.563,264.58L101.56,264.58L101.56,30.23Z" style="fill:#F15A60" />
<path d="M270.78,30.23L270.78,260.86L300.78,260.86L300.78,30.23Z" style="fill:#F15A60" />
<path d="M470,30.23L470,236.64L500,236.64L500,30.23Z" style="fill:#F15A60" />
<path d="M101.56,30.23L101.56,241.86L131.56,241.86L131.56,30.23Z" style="fill:#7AC36A" />
<path d="M300.78,30.23L300.78,230.31L330.78,230.31L330.78,30.23Z" style="fill:#7AC36A" />
<path d="M500,30.23L500,221.74L530,221.74L530,30.23Z" style="fill:#7AC36A" />
<path d="M131.56,30.23L131.56,249.68L161.56,249.68L161.56,30.23Z" style="fill:#5A9BD4" />
<path d="M330.78,30.23L330.78,241.67L360.78,241.67L360.78,30.23Z" style="fill:#5A9BD4" />
<path d="M530,30.23L530,232.17L560,232.17L560,30.23Z" style="fill:#5A9BD4" />
<path d="M540,252.81L540,264.58L560,264.58L560,252.81Z" style="fill:#F15A60" />
<text x="506.34" y="-253.03" transform="scale(1, -1)"
	style="font-family:Times;font-weight:normal;font-style:normal;font-size:12px">casbin</text>
<path d="M540,241.03L540,252.81L560,252.81L560,241.03Z" style="fill:#7AC36A" />
<text x="509.02" y="-241.25" transform="scale(1, -1)"
	style="font-family:Times;font-weight:normal;font-style:normal;font-size:12px">fastac</text>
<path d="M540,229.25L540,241.03L560,241.03L560,229.25Z" style="fill:#5A9BD4" />
<text x="478.37" y="-229.47" transform="scale(1, -1)"
	style="font-family:Times;font-weight:normal;font-style:normal;font-size:12px">fastac-index</text>
</g>
</svg>
