<?xml version="1.0"?>
<!-- Generated by SVGo and Plotinum VG -->
<svg width="470pt" height="235pt" viewBox="0 0 470 235"
	xmlns="http://www.w3.org/2000/svg"
	xmlns:xlink="http://www.w3.org/1999/xlink">
<g transform="scale(1, -1) translate(0, -235)">
<path d="M0,0L470,0L470,235L0,235Z" style="fill:#FFFFFF" />
<text x="172.01" y="-223.45" transform="scale(1, -1)"
	style="font-family:Times;font-weight:normal;font-style:normal;font-size:12px">BenchmarkRemovePolicy</text>
<text x="269.37" y="-3.8613" transform="scale(1, -1)"
	style="font-family:Times;font-weight:normal;font-style:normal;font-size:12px">size</text>
<text x="81.666" y="-15.602" transform="scale(1, -1)"
	style="font-family:Times;font-weight:normal;font-style:normal;font-size:10px">Large(1000)</text>
<text x="250.93" y="-15.602" transform="scale(1, -1)"
	style="font-family:Times;font-weight:normal;font-style:normal;font-size:10px">Medium(100)</text>
<text x="431.67" y="-15.602" transform="scale(1, -1)"
	style="font-family:Times;font-weight:normal;font-style:normal;font-size:10px">Empty(0)</text>
<g transform="rotate(90)">
<text x="103.25" y="11.555" transform="scale(1, -1)"
	style="font-family:Times;font-weight:normal;font-style:normal;font-size:12px">allocs/op</text>
</g>
<text x="20.416" y="-25.509" transform="scale(1, -1)"
	style="font-family:Times;font-weight:normal;font-style:normal;font-size:10px">0</text>
<text x="20.416" y="-104.41" transform="scale(1, -1)"
	style="font-family:Times;font-weight:normal;font-style:normal;font-size:10px">5</text>
<text x="15.416" y="-183.3" transform="scale(1, -1)"
	style="font-family:Times;font-weight:normal;font-style:normal;font-size:10px">10</text>
<path d="M27.916,30.23L35.916,30.23" style="fill:none;stroke:#000000;stroke-width:0.5" />
<path d="M27.916,109.13L35.916,109.13" style="fill:none;stroke:#000000;stroke-width:0.5" />
<path d="M27.916,188.03L35.916,188.03" style="fill:none;stroke:#000000;stroke-width:0.5" />
<path d="M31.916,46.01L35.916,46.01" style="fill:none;stroke:#000000;stroke-width:0.5" />
<path d="M31.916,61.789L35.916,61.789" style="fill:none;stroke:#000000;stroke-width:0.5" />
<path d="M31.916,77.569L35.916,77.569" style="fill:none;stroke:#000000;stroke-width:0.5" />
<path d="M31.916,93.348L35.916,93.348" style="fill:none;stroke:#000000;stroke-width:0.5" />
<path d="M31.916,124.91L35.916,124.91" style="fill:none;stroke:#000000;stroke-width:0.5" />
<path d="M31.916,140.69L35.916,140.69" style="fill:none;stroke:#000000;stroke-width:0.5" />
<path d="M31.916,156.47L35.916,156.47" style="fill:none;stroke:#000000;stroke-width:0.5" />
<path d="M31.916,172.25L35.916,172.25" style="fill:none;stroke:#000000;stroke-width:0.5" />
<path d="M31.916,203.8L35.916,203.8" style="fill:none;stroke:#000000;stroke-width:0.5" />
<path d="M31.916,219.58L35.916,219.58" style="fill:none;stroke:#000000;stroke-width:0.5" />
<path d="M35.916,30.23L35.916,219.58" style="fill:none;stroke:#000000;stroke-width:0.5" />
<path d="M61.563,30.23L61.563,219.58L91.563,219.58L91.563,30.23Z" style="fill:#F15A60" />
<path d="M233.7,30.23L233.7,219.58L263.7,219.58L263.7,30.23Z" style="fill:#F15A60" />
<path d="M405.84,30.23L405.84,203.8L435.84,203.8L435.84,30.23Z" style="fill:#F15A60" />
<path d="M91.563,30.23L91.563,203.8L121.56,203.8L121.56,30.23Z" style="fill:#7AC36A" />
<path d="M263.7,30.23L263.7,188.03L293.7,188.03L293.7,30.23Z" style="fill:#7AC36A" />
<path d="M435.84,30.23L435.84,188.03L465.84,188.03L465.84,30.23Z" style="fill:#7AC36A" />
<path d="M450,207.81L450,219.58L470,219.58L470,207.81Z" style="fill:#F15A60" />
<text x="413.67" y="-208.03" transform="scale(1, -1)"
	style="font-family:Times;font-weight:normal;font-style:normal;font-size:12px">Casbin</text>
<path d="M450,196.03L450,207.81L470,207.81L470,196.03Z" style="fill:#7AC36A" />
<text x="410.33" y="-196.25" transform="scale(1, -1)"
	style="font-family:Times;font-weight:normal;font-style:normal;font-size:12px">FastAC</text>
</g>
</svg>
