<?xml version="1.0"?>
<!-- Generated by SVGo and Plotinum VG -->
<svg width="560pt" height="280pt" viewBox="0 0 560 280"
	xmlns="http://www.w3.org/2000/svg"
	xmlns:xlink="http://www.w3.org/1999/xlink">
<g transform="scale(1, -1) translate(0, -280)">
<path d="M0,0L560,0L560,280L0,280Z" style="fill:#FFFFFF" />
<text x="217.01" y="-268.45" transform="scale(1, -1)"
	style="font-family:Times;font-weight:normal;font-style:normal;font-size:12px">BenchmarkRemovePolicy</text>
<text x="306.45" y="-3.8613" transform="scale(1, -1)"
	style="font-family:Times;font-weight:normal;font-style:normal;font-size:12px">size</text>
<text x="91.666" y="-15.602" transform="scale(1, -1)"
	style="font-family:Times;font-weight:normal;font-style:normal;font-size:10px">Large(1000)</text>
<text x="288.01" y="-15.602" transform="scale(1, -1)"
	style="font-family:Times;font-weight:normal;font-style:normal;font-size:10px">Medium(100)</text>
<text x="495.84" y="-15.602" transform="scale(1, -1)"
	style="font-family:Times;font-weight:normal;font-style:normal;font-size:10px">Empty(0)</text>
<g transform="rotate(90)">
<text x="134.41" y="11.555" transform="scale(1, -1)"
	style="font-family:Times;font-weight:normal;font-style:normal;font-size:12px">ns/op</text>
</g>
<text x="30.416" y="-25.509" transform="scale(1, -1)"
	style="font-family:Times;font-weight:normal;font-style:normal;font-size:10px">0</text>
<text x="20.416" y="-92.707" transform="scale(1, -1)"
	style="font-family:Times;font-weight:normal;font-style:normal;font-size:10px">400</text>
<text x="20.416" y="-159.91" transform="scale(1, -1)"
	style="font-family:Times;font-weight:normal;font-style:normal;font-size:10px">800</text>
<text x="15.416" y="-227.1" transform="scale(1, -1)"
	style="font-family:Times;font-weight:normal;font-style:normal;font-size:10px">1200</text>
<path d="M37.916,30.23L45.916,30.23" style="fill:none;stroke:#000000;stroke-width:0.5" />
<path d="M37.916,97.429L45.916,97.429" style="fill:none;stroke:#000000;stroke-width:0.5" />
<path d="M37.916,164.63L45.916,164.63" style="fill:none;stroke:#000000;stroke-width:0.5" />
<path d="M37.916,231.82L45.916,231.82" style="fill:none;stroke:#000000;stroke-width:0.5" />
<path d="M41.916,47.03L45.916,47.03" style="fill:none;stroke:#000000;stroke-width:0.5" />
<path d="M41.916,63.83L45.916,63.83" style="fill:none;stroke:#000000;stroke-width:0.5" />
<path d="M41.916,80.629L45.916,80.629" style="fill:none;stroke:#000000;stroke-width:0.5" />
<path d="M41.916,114.23L45.916,114.23" style="fill:none;stroke:#000000;stroke-width:0.5" />
<path d="M41.916,131.03L45.916,131.03" style="fill:none;stroke:#000000;stroke-width:0.5" />
<path d="M41.916,147.83L45.916,147.83" style="fill:none;stroke:#000000;stroke-width:0.5" />
<path d="M41.916,181.43L45.916,181.43" style="fill:none;stroke:#000000;stroke-width:0.5" />
<path d="M41.916,198.23L45.916,198.23" style="fill:none;stroke:#000000;stroke-width:0.5" />
<path d="M41.916,215.03L45.916,215.03" style="fill:none;stroke:#000000;stroke-width:0.5" />
<path d="M41.916,248.62L45.916,248.62" style="fill:none;stroke:#000000;stroke-width:0.5" />
<path d="M45.916,30.23L45.916,264.58" style="fill:none;stroke:#000000;stroke-width:0.5" />
<path d="M71.563,30.23L71.563,264.58L101.56,264.58L101.56,30.23Z" style="fill:#F15A60" />
<path d="M270.78,30.23L270.78,227.29L300.78,227.29L300.78,30.23Z" style="fill:#F15A60" />
<path d="M470,30.23L470,209.99L500,209.99L500,30.23Z" style="fill:#F15A60" />
<path d="M101.56,30.23L101.56,218.05L131.56,218.05L131.56,30.23Z" style="fill:#7AC36A" />
<path d="M300.78,30.23L300.78,216.37L330.78,216.37L330.78,30.23Z" style="fill:#7AC36A" />
<path d="M500,30.23L500,206.79L530,206.79L530,30.23Z" style="fill:#7AC36A" />
<path d="M131.56,30.23L131.56,221.75L161.56,221.75L161.56,30.23Z" style="fill:#5A9BD4" />
<path d="M330.78,30.23L330.78,218.55L360.78,218.55L360.78,30.23Z" style="fill:#5A9BD4" />
<path d="M530,30.23L530,210.83L560,210.83L560,30.23Z" style="fill:#5A9BD4" />
<path d="M540,252.81L540,264.58L560,264.58L560,252.81Z" style="fill:#F15A60" />
<text x="503.67" y="-253.03" transform="scale(1, -1)"
	style="font-family:Times;font-weight:normal;font-style:normal;font-size:12px">Casbin</text>
<path d="M540,241.03L540,252.81L560,252.81L560,241.03Z" style="fill:#7AC36A" />
<text x="500.33" y="-241.25" transform="scale(1, -1)"
	style="font-family:Times;font-weight:normal;font-style:normal;font-size:12px">FastAC</text>
<path d="M540,229.25L540,241.03L560,241.03L560,229.25Z" style="fill:#5A9BD4" />
<text x="469.67" y="-229.47" transform="scale(1, -1)"
	style="font-family:Times;font-weight:normal;font-style:normal;font-size:12px">FastAC-index</text>
</g>
</svg>
