<?xml version="1.0"?>
<!-- Generated by SVGo and Plotinum VG -->
<svg width="560pt" height="280pt" viewBox="0 0 560 280"
	xmlns="http://www.w3.org/2000/svg"
	xmlns:xlink="http://www.w3.org/1999/xlink">
<g transform="scale(1, -1) translate(0, -280)">
<path d="M0,0L560,0L560,280L0,280Z" style="fill:#FFFFFF" />
<text x="217.01" y="-268.45" transform="scale(1, -1)"
	style="font-family:Times;font-weight:normal;font-style:normal;font-size:12px">BenchmarkRemovePolicy</text>
<text x="301.45" y="-3.8613" transform="scale(1, -1)"
	style="font-family:Times;font-weight:normal;font-style:normal;font-size:12px">size</text>
<text x="81.666" y="-15.602" transform="scale(1, -1)"
	style="font-family:Times;font-weight:normal;font-style:normal;font-size:10px">Large(1000)</text>
<text x="283.01" y="-15.602" transform="scale(1, -1)"
	style="font-family:Times;font-weight:normal;font-style:normal;font-size:10px">Medium(100)</text>
<text x="495.84" y="-15.602" transform="scale(1, -1)"
	style="font-family:Times;font-weight:normal;font-style:normal;font-size:10px">Empty(0)</text>
<g transform="rotate(90)">
<text x="125.75" y="11.555" transform="scale(1, -1)"
	style="font-family:Times;font-weight:normal;font-style:normal;font-size:12px">allocs/op</text>
</g>
<text x="20.416" y="-25.509" transform="scale(1, -1)"
	style="font-family:Times;font-weight:normal;font-style:normal;font-size:10px">0</text>
<text x="20.416" y="-123.16" transform="scale(1, -1)"
	style="font-family:Times;font-weight:normal;font-style:normal;font-size:10px">5</text>
<text x="15.416" y="-220.8" transform="scale(1, -1)"
	style="font-family:Times;font-weight:normal;font-style:normal;font-size:10px">10</text>
<path d="M27.916,30.23L35.916,30.23" style="fill:none;stroke:#000000;stroke-width:0.5" />
<path d="M27.916,127.88L35.916,127.88" style="fill:none;stroke:#000000;stroke-width:0.5" />
<path d="M27.916,225.53L35.916,225.53" style="fill:none;stroke:#000000;stroke-width:0.5" />
<path d="M31.916,49.76L35.916,49.76" style="fill:none;stroke:#000000;stroke-width:0.5" />
<path d="M31.916,69.289L35.916,69.289" style="fill:none;stroke:#000000;stroke-width:0.5" />
<path d="M31.916,88.819L35.916,88.819" style="fill:none;stroke:#000000;stroke-width:0.5" />
<path d="M31.916,108.35L35.916,108.35" style="fill:none;stroke:#000000;stroke-width:0.5" />
<path d="M31.916,147.41L35.916,147.41" style="fill:none;stroke:#000000;stroke-width:0.5" />
<path d="M31.916,166.94L35.916,166.94" style="fill:none;stroke:#000000;stroke-width:0.5" />
<path d="M31.916,186.47L35.916,186.47" style="fill:none;stroke:#000000;stroke-width:0.5" />
<path d="M31.916,206L35.916,206" style="fill:none;stroke:#000000;stroke-width:0.5" />
<path d="M31.916,245.05L35.916,245.05" style="fill:none;stroke:#000000;stroke-width:0.5" />
<path d="M31.916,264.58L35.916,264.58" style="fill:none;stroke:#000000;stroke-width:0.5" />
<path d="M35.916,30.23L35.916,264.58" style="fill:none;stroke:#000000;stroke-width:0.5" />
<path d="M61.563,30.23L61.563,264.58L91.563,264.58L91.563,30.23Z" style="fill:#F15A60" />
<path d="M265.78,30.23L265.78,264.58L295.78,264.58L295.78,30.23Z" style="fill:#F15A60" />
<path d="M470,30.23L470,245.05L500,245.05L500,30.23Z" style="fill:#F15A60" />
<path d="M91.563,30.23L91.563,245.05L121.56,245.05L121.56,30.23Z" style="fill:#7AC36A" />
<path d="M295.78,30.23L295.78,225.53L325.78,225.53L325.78,30.23Z" style="fill:#7AC36A" />
<path d="M500,30.23L500,225.53L530,225.53L530,30.23Z" style="fill:#7AC36A" />
<path d="M121.56,30.23L121.56,245.05L151.56,245.05L151.56,30.23Z" style="fill:#5A9BD4" />
<path d="M325.78,30.23L325.78,225.53L355.78,225.53L355.78,30.23Z" style="fill:#5A9BD4" />
<path d="M530,30.23L530,225.53L560,225.53L560,30.23Z" style="fill:#5A9BD4" />
<path d="M540,252.81L540,264.58L560,264.58L560,252.81Z" style="fill:#F15A60" />
<text x="503.67" y="-253.03" transform="scale(1, -1)"
	style="font-family:Times;font-weight:normal;font-style:normal;font-size:12px">Casbin</text>
<path d="M540,241.03L540,252.81L560,252.81L560,241.03Z" style="fill:#7AC36A" />
<text x="500.33" y="-241.25" transform="scale(1, -1)"
	style="font-family:Times;font-weight:normal;font-style:normal;font-size:12px">FastAC</text>
<path d="M540,229.25L540,241.03L560,241.03L560,229.25Z" style="fill:#5A9BD4" />
<text x="469.67" y="-229.47" transform="scale(1, -1)"
	style="font-family:Times;font-weight:normal;font-style:normal;font-size:12px">FastAC-index</text>
</g>
</svg>
