<?xml version="1.0"?>
<!-- Generated by SVGo and Plotinum VG -->
<svg width="470pt" height="235pt" viewBox="0 0 470 235"
	xmlns="http://www.w3.org/2000/svg"
	xmlns:xlink="http://www.w3.org/1999/xlink">
<g transform="scale(1, -1) translate(0, -235)">
<path d="M0,0L470,0L470,235L0,235Z" style="fill:#FFFFFF" />
<text x="202.17" y="-223.45" transform="scale(1, -1)"
	style="font-family:Times;font-weight:normal;font-style:normal;font-size:12px">Remove Rule</text>
<text x="274.37" y="-3.8613" transform="scale(1, -1)"
	style="font-family:Times;font-weight:normal;font-style:normal;font-size:12px">size</text>
<text x="91.666" y="-15.602" transform="scale(1, -1)"
	style="font-family:Times;font-weight:normal;font-style:normal;font-size:10px">Large(1000)</text>
<text x="255.93" y="-15.602" transform="scale(1, -1)"
	style="font-family:Times;font-weight:normal;font-style:normal;font-size:10px">Medium(100)</text>
<text x="431.67" y="-15.602" transform="scale(1, -1)"
	style="font-family:Times;font-weight:normal;font-style:normal;font-size:10px">Empty(0)</text>
<g transform="rotate(90)">
<text x="110.99" y="11.555" transform="scale(1, -1)"
	style="font-family:Times;font-weight:normal;font-style:normal;font-size:12px">ns/op</text>
</g>
<text x="30.416" y="-25.509" transform="scale(1, -1)"
	style="font-family:Times;font-weight:normal;font-style:normal;font-size:10px">0</text>
<text x="20.416" y="-86.991" transform="scale(1, -1)"
	style="font-family:Times;font-weight:normal;font-style:normal;font-size:10px">400</text>
<text x="20.416" y="-148.47" transform="scale(1, -1)"
	style="font-family:Times;font-weight:normal;font-style:normal;font-size:10px">800</text>
<text x="15.416" y="-209.96" transform="scale(1, -1)"
	style="font-family:Times;font-weight:normal;font-style:normal;font-size:10px">1200</text>
<path d="M37.916,30.23L45.916,30.23" style="fill:none;stroke:#000000;stroke-width:0.5" />
<path d="M37.916,91.713L45.916,91.713" style="fill:none;stroke:#000000;stroke-width:0.5" />
<path d="M37.916,153.19L45.916,153.19" style="fill:none;stroke:#000000;stroke-width:0.5" />
<path d="M37.916,214.68L45.916,214.68" style="fill:none;stroke:#000000;stroke-width:0.5" />
<path d="M41.916,45.601L45.916,45.601" style="fill:none;stroke:#000000;stroke-width:0.5" />
<path d="M41.916,60.972L45.916,60.972" style="fill:none;stroke:#000000;stroke-width:0.5" />
<path d="M41.916,76.342L45.916,76.342" style="fill:none;stroke:#000000;stroke-width:0.5" />
<path d="M41.916,107.08L45.916,107.08" style="fill:none;stroke:#000000;stroke-width:0.5" />
<path d="M41.916,122.45L45.916,122.45" style="fill:none;stroke:#000000;stroke-width:0.5" />
<path d="M41.916,137.82L45.916,137.82" style="fill:none;stroke:#000000;stroke-width:0.5" />
<path d="M41.916,168.57L45.916,168.57" style="fill:none;stroke:#000000;stroke-width:0.5" />
<path d="M41.916,183.94L45.916,183.94" style="fill:none;stroke:#000000;stroke-width:0.5" />
<path d="M41.916,199.31L45.916,199.31" style="fill:none;stroke:#000000;stroke-width:0.5" />
<path d="M45.916,30.23L45.916,217.75" style="fill:none;stroke:#000000;stroke-width:0.5" />
<path d="M71.563,30.23L71.563,217.44L101.56,217.44L101.56,30.23Z" style="fill:#F15A60" />
<path d="M238.7,30.23L238.7,213.45L268.7,213.45L268.7,30.23Z" style="fill:#F15A60" />
<path d="M405.84,30.23L405.84,217.75L435.84,217.75L435.84,30.23Z" style="fill:#F15A60" />
<path d="M101.56,30.23L101.56,207.76L131.56,207.76L131.56,30.23Z" style="fill:#7AC36A" />
<path d="M268.7,30.23L268.7,206.99L298.7,206.99L298.7,30.23Z" style="fill:#7AC36A" />
<path d="M435.84,30.23L435.84,195.46L465.84,195.46L465.84,30.23Z" style="fill:#7AC36A" />
<path d="M450,207.81L450,219.58L470,219.58L470,207.81Z" style="fill:#F15A60" />
<text x="413.67" y="-208.03" transform="scale(1, -1)"
	style="font-family:Times;font-weight:normal;font-style:normal;font-size:12px">Casbin</text>
<path d="M450,196.03L450,207.81L470,207.81L470,196.03Z" style="fill:#7AC36A" />
<text x="410.33" y="-196.25" transform="scale(1, -1)"
	style="font-family:Times;font-weight:normal;font-style:normal;font-size:12px">FastAC</text>
</g>
</svg>
