<?xml version="1.0"?>
<!-- Generated by SVGo and Plotinum VG -->
<svg width="470pt" height="235pt" viewBox="0 0 470 235"
	xmlns="http://www.w3.org/2000/svg"
	xmlns:xlink="http://www.w3.org/1999/xlink">
<g transform="scale(1, -1) translate(0, -235)">
<path d="M0,0L470,0L470,235L0,235Z" style="fill:#FFFFFF" />
<text x="172.01" y="-223.45" transform="scale(1, -1)"
	style="font-family:Times;font-weight:normal;font-style:normal;font-size:12px">BenchmarkRemovePolicy</text>
<text x="274.37" y="-3.8613" transform="scale(1, -1)"
	style="font-family:Times;font-weight:normal;font-style:normal;font-size:12px">size</text>
<text x="91.666" y="-15.602" transform="scale(1, -1)"
	style="font-family:Times;font-weight:normal;font-style:normal;font-size:10px">Large(1000)</text>
<text x="255.93" y="-15.602" transform="scale(1, -1)"
	style="font-family:Times;font-weight:normal;font-style:normal;font-size:10px">Medium(100)</text>
<text x="431.67" y="-15.602" transform="scale(1, -1)"
	style="font-family:Times;font-weight:normal;font-style:normal;font-size:10px">Empty(0)</text>
<g transform="rotate(90)">
<text x="111.91" y="11.555" transform="scale(1, -1)"
	style="font-family:Times;font-weight:normal;font-style:normal;font-size:12px">ns/op</text>
</g>
<text x="30.416" y="-25.509" transform="scale(1, -1)"
	style="font-family:Times;font-weight:normal;font-style:normal;font-size:10px">0</text>
<text x="20.416" y="-81.078" transform="scale(1, -1)"
	style="font-family:Times;font-weight:normal;font-style:normal;font-size:10px">400</text>
<text x="20.416" y="-136.65" transform="scale(1, -1)"
	style="font-family:Times;font-weight:normal;font-style:normal;font-size:10px">800</text>
<text x="15.416" y="-192.22" transform="scale(1, -1)"
	style="font-family:Times;font-weight:normal;font-style:normal;font-size:10px">1200</text>
<path d="M37.916,30.23L45.916,30.23" style="fill:none;stroke:#000000;stroke-width:0.5" />
<path d="M37.916,85.8L45.916,85.8" style="fill:none;stroke:#000000;stroke-width:0.5" />
<path d="M37.916,141.37L45.916,141.37" style="fill:none;stroke:#000000;stroke-width:0.5" />
<path d="M37.916,196.94L45.916,196.94" style="fill:none;stroke:#000000;stroke-width:0.5" />
<path d="M41.916,44.123L45.916,44.123" style="fill:none;stroke:#000000;stroke-width:0.5" />
<path d="M41.916,58.015L45.916,58.015" style="fill:none;stroke:#000000;stroke-width:0.5" />
<path d="M41.916,71.908L45.916,71.908" style="fill:none;stroke:#000000;stroke-width:0.5" />
<path d="M41.916,99.693L45.916,99.693" style="fill:none;stroke:#000000;stroke-width:0.5" />
<path d="M41.916,113.58L45.916,113.58" style="fill:none;stroke:#000000;stroke-width:0.5" />
<path d="M41.916,127.48L45.916,127.48" style="fill:none;stroke:#000000;stroke-width:0.5" />
<path d="M41.916,155.26L45.916,155.26" style="fill:none;stroke:#000000;stroke-width:0.5" />
<path d="M41.916,169.15L45.916,169.15" style="fill:none;stroke:#000000;stroke-width:0.5" />
<path d="M41.916,183.05L45.916,183.05" style="fill:none;stroke:#000000;stroke-width:0.5" />
<path d="M41.916,210.83L45.916,210.83" style="fill:none;stroke:#000000;stroke-width:0.5" />
<path d="M45.916,30.23L45.916,219.58" style="fill:none;stroke:#000000;stroke-width:0.5" />
<path d="M71.563,30.23L71.563,219.58L101.56,219.58L101.56,30.23Z" style="fill:#F15A60" />
<path d="M238.7,30.23L238.7,201.52L268.7,201.52L268.7,30.23Z" style="fill:#F15A60" />
<path d="M405.84,30.23L405.84,197.63L435.84,197.63L435.84,30.23Z" style="fill:#F15A60" />
<path d="M101.56,30.23L101.56,186.1L131.56,186.1L131.56,30.23Z" style="fill:#7AC36A" />
<path d="M268.7,30.23L268.7,194.02L298.7,194.02L298.7,30.23Z" style="fill:#7AC36A" />
<path d="M435.84,30.23L435.84,179.57L465.84,179.57L465.84,30.23Z" style="fill:#7AC36A" />
<path d="M450,207.81L450,219.58L470,219.58L470,207.81Z" style="fill:#F15A60" />
<text x="413.67" y="-208.03" transform="scale(1, -1)"
	style="font-family:Times;font-weight:normal;font-style:normal;font-size:12px">Casbin</text>
<path d="M450,196.03L450,207.81L470,207.81L470,196.03Z" style="fill:#7AC36A" />
<text x="410.33" y="-196.25" transform="scale(1, -1)"
	style="font-family:Times;font-weight:normal;font-style:normal;font-size:12px">FastAC</text>
</g>
</svg>
